M48
; DRILL file {KiCad 9.0.2} date 2026-06-10T13:50:21-0700
; FORMAT={-:-/ absolute / inch / decimal}
; #@! TF.CreationDate,2026-06-10T13:50:21-07:00
; #@! TF.GenerationSoftware,Kicad,Pcbnew,9.0.2
; #@! TF.FileFunction,Plated,1,4,PTH
FMAT,2
INCH
; #@! TA.AperFunction,Plated,PTH,ViaDrill
T1C0.0079
; #@! TA.AperFunction,Plated,PTH,ViaDrill
T2C0.0118
; #@! TA.AperFunction,Plated,PTH,ComponentDrill
T3C0.0315
; #@! TA.AperFunction,Plated,PTH,ComponentDrill
T4C0.0394
; #@! TA.AperFunction,Plated,PTH,ComponentDrill
T5C0.0400
; #@! TA.AperFunction,Plated,PTH,ComponentDrill
T6C0.0433
; #@! TA.AperFunction,Plated,PTH,ComponentDrill
T7C0.0472
; #@! TA.AperFunction,Plated,PTH,ComponentDrill
T8C0.0709
%
G90
G05
T1
X3.34Y-5.06
X3.34Y-8.3
X3.34Y-8.45
X3.42Y-5.04
X3.42Y-8.4
X3.42Y-8.45
X3.46Y-7.7
X3.46Y-9.7
X3.51Y-8.45
X3.52Y-5.26
X3.54Y-9.5
X3.5677Y-5.47
X3.65Y-8.57
X3.66Y-5.47
X3.67Y-5.69
X3.67Y-8.6
X3.68Y-8.76
X3.7077Y-5.47
X3.71Y-6.8
X3.71Y-10.36
X3.73Y-9.55
X3.74Y-5.53
X3.74Y-5.93
X3.74Y-6.5
X3.74Y-9.7
X3.75Y-7.25
X3.75Y-10.8
X3.76Y-6.41
X3.77Y-7.27
X3.78Y-6.3
X3.79Y-7.34
X3.8Y-6.21
X3.8Y-10.4
X3.81Y-7.46
X3.82Y-5.32
X3.82Y-5.47
X3.83Y-6.11
X3.83Y-7.54
X3.84Y-8.18
X3.85Y-6.27
X3.85Y-10.2
X3.85Y-10.6
X3.87Y-5.77
X3.87Y-6.59
X3.9Y-6.69
X3.904Y-5.84
X3.91Y-6.79
X3.92Y-5.86
X3.93Y-10.7
X3.95Y-7.49
X3.95Y-10.51
X3.98Y-5.42
X4.05Y-10.3
X4.06Y-9.7
X4.14Y-6.7
X4.14Y-9.4
X4.15Y-10.34
X4.21Y-10.74
X4.22Y-5.08
X4.25Y-10.54
X4.34Y-6.55
X4.34Y-8.06
X4.35Y-8.19
X4.35Y-10.24
X4.35Y-10.64
X4.3642Y-6.937
X4.375Y-5.045
X4.38Y-6.31
X4.38Y-7.85
X4.39Y-8.9
X4.4Y-7.74
X4.41Y-6.22
X4.43Y-7.64
X4.45Y-9.35
X4.45Y-10.83
X4.51Y-10.46
X4.54Y-7.54
X4.54Y-9.29
X4.545Y-7.575
X4.56Y-7.526
X4.566Y-8.077
X4.567Y-8.803
X4.57Y-6.28
X4.57Y-6.53
X4.57Y-6.58
X4.57Y-6.62
X4.57Y-6.68
X4.57Y-6.73
X4.57Y-6.77
X4.58Y-7.45
X4.581Y-8.682
X4.583Y-8.596
X4.597Y-7.435
X4.6Y-7.8
X4.62Y-7.43
X4.62Y-7.9
X4.63Y-9.53
X4.7Y-7.76
X4.7Y-9.74
X4.76Y-6.0374
X4.76Y-6.4
X4.76Y-8.61
X4.76Y-9.0
X4.77Y-6.98
X4.77Y-7.02
X4.77Y-7.3
X4.77Y-7.5
X4.77Y-7.61
X4.77Y-7.79
X4.78Y-6.14
X4.78Y-6.5
X4.8Y-6.25
X4.8Y-6.6
X4.82Y-6.34
X4.82Y-6.7
X4.82Y-6.75
X4.82Y-7.1
X4.82Y-9.66
X4.86Y-6.4626
X4.86Y-6.64
X4.86Y-6.9
X4.86Y-9.45
X4.86Y-10.4
X4.86Y-10.5
X4.89Y-6.5626
X4.89Y-6.66
X4.89Y-7.0
X4.89Y-9.64
X4.92Y-6.8
X4.93Y-6.3626
X4.93Y-9.44
X4.94Y-4.28
X4.94Y-6.98
X4.95Y-8.86
X5.0Y-5.29
X5.03Y-4.06
X5.05Y-6.46
X5.05Y-6.85
X5.06Y-6.89
X5.06Y-9.54
X5.07Y-6.94
X5.0787Y-6.4687
X5.08Y-6.975
X5.08Y-9.2
X5.09Y-7.16
X5.09Y-9.57
X5.099Y-6.376
X5.1Y-6.35
X5.1Y-7.24
X5.1Y-7.27
X5.1Y-10.2
X5.1Y-10.3
X5.1Y-10.41
X5.1Y-10.6
X5.1Y-10.7
X5.1Y-10.8
X5.105Y-6.47
X5.11Y-7.18
X5.12Y-6.25
X5.13Y-6.3
X5.14Y-9.23
X5.16Y-6.0374
X5.16Y-9.16
X5.16Y-9.26
X5.16Y-9.41
X5.16Y-9.49
X5.16Y-9.58
X5.16Y-9.62
X5.18Y-6.14
X5.18Y-9.14
X5.21Y-5.8
X5.21Y-8.81
X5.21Y-8.89
X5.22Y-6.28
X5.22Y-6.32
X5.22Y-6.38
X5.22Y-6.42
X5.22Y-6.48
X5.22Y-6.52
X5.22Y-6.6
X5.22Y-7.0
X5.22Y-7.22
X5.22Y-7.32
X5.22Y-7.48
X5.22Y-7.52
X5.22Y-7.6
X5.25Y-4.99
X5.25Y-5.1
X5.25Y-8.33
X5.2626Y-6.34
X5.34Y-4.53
X5.35Y-5.1
X5.35Y-5.2
X5.35Y-6.08
X5.36Y-4.56
X5.36Y-10.31
X5.36Y-10.41
X5.36Y-10.71
X5.37Y-7.52
X5.37Y-7.62
X5.37Y-8.85
X5.372Y-6.107
X5.38Y-6.13
X5.396Y-6.147
X5.4Y-4.74
X5.4Y-6.17
X5.4Y-7.19
X5.4Y-7.29
X5.4Y-7.34
X5.4Y-7.39
X5.4Y-7.59
X5.4Y-7.67
X5.4Y-7.76
X5.4Y-8.14
X5.4Y-9.56
X5.41Y-7.53
X5.414Y-6.194
X5.42Y-4.64
X5.43Y-4.68
X5.44Y-4.58
X5.44Y-4.72
X5.44Y-8.45
X5.44Y-9.76
X5.45Y-5.86
X5.46Y-4.29
X5.46Y-4.86
X5.46Y-8.54
X5.46Y-9.8
X5.47Y-4.93
X5.47Y-5.88
X5.47Y-8.64
X5.48Y-9.82
X5.481Y-5.903
X5.4845Y-4.9545
X5.5Y-4.65
X5.5Y-5.92
X5.5Y-8.73
X5.5Y-9.33
X5.5Y-9.62
X5.51Y-4.42
X5.51Y-8.94
X5.52Y-5.96
X5.53Y-4.85
X5.53Y-8.96
X5.54Y-4.78
X5.546Y-5.97
X5.55Y-4.46
X5.55Y-4.69
X5.56Y-6.6
X5.56Y-8.1
X5.56Y-8.96
X5.574Y-4.466
X5.58Y-10.4
X5.58Y-10.47
X5.58Y-10.99
X5.59Y-10.2
X5.6Y-10.37
X5.6Y-10.69
X5.6Y-10.79
X5.6Y-10.9
X5.62Y-7.04
X5.62Y-7.77
X5.62Y-10.27
X5.62Y-10.6
X5.63Y-6.3
X5.63Y-6.5
X5.63Y-10.17
X5.64Y-4.83
X5.65Y-4.32
X5.65Y-4.942
X5.66Y-5.022
X5.67Y-4.9309
X5.67Y-5.0
X5.69Y-4.96
X5.69Y-5.08
X5.69Y-9.74
X5.72Y-4.95
X5.72Y-5.03
X5.72Y-8.93
X5.72Y-9.0
X5.72Y-9.1
X5.726Y-5.38
X5.73Y-5.9
X5.73Y-9.41
X5.75Y-5.38
X5.75Y-5.8803
X5.77Y-5.44
X5.8Y-5.1
X5.8Y-5.2
X5.8Y-7.82
X5.8Y-7.87
X5.8Y-8.31
X5.82Y-10.38
X5.82Y-10.42
X5.82Y-10.5
X5.82Y-10.71
X5.82Y-10.78
X5.82Y-10.82
X5.82Y-10.88
X5.82Y-10.92
X5.84Y-5.36
X5.84Y-5.84
X5.84Y-9.42
X5.85Y-5.06
X5.85Y-7.99
X5.8529Y-4.9626
X5.86Y-5.34
X5.86Y-5.72
X5.87Y-4.8
X5.87Y-4.9
X5.87Y-5.67
X5.9Y-11.1
X5.91Y-4.9599
X5.91Y-5.26
X5.91Y-5.67
X5.91Y-6.63
X5.91Y-9.84
X5.91Y-10.57
X5.92Y-5.34
X5.92Y-5.44
X5.93Y-4.39
X5.93Y-5.83
X5.93Y-10.87
X5.9336Y-7.77
X5.94Y-9.32
X5.94Y-10.76
X5.95Y-6.35
X5.95Y-7.28
X5.97Y-5.5
X5.97Y-6.37
X5.97Y-8.1
X5.98Y-7.23
X5.98Y-7.54
X5.99Y-8.65
X6.01Y-4.59
X6.01Y-7.48
X6.01Y-8.67
X6.02Y-6.12
X6.03Y-7.335
X6.04Y-7.18
X6.04Y-8.41
X6.05Y-6.65
X6.05Y-6.83
X6.06Y-5.06
X6.06Y-5.18
X6.07Y-8.76
X6.08Y-5.25
X6.08Y-5.55
X6.08Y-6.25
X6.08Y-6.34
X6.08Y-6.492
X6.08Y-7.18
X6.09Y-7.34
X6.09Y-7.49
X6.09Y-7.54
X6.09Y-10.38
X6.09Y-10.42
X6.09Y-10.48
X6.09Y-10.69
X6.09Y-10.8
X6.09Y-10.88
X6.09Y-10.92
X6.1Y-5.65
X6.1Y-6.475
X6.1Y-7.14
X6.11Y-10.54
X6.11Y-11.0
X6.12Y-5.48
X6.12Y-5.55
X6.12Y-6.46
X6.12Y-6.98
X6.12Y-7.446
X6.12Y-8.55
X6.13Y-10.44
X6.14Y-6.44
X6.14Y-6.93
X6.14Y-8.43
X6.14Y-10.68
X6.15Y-10.34
X6.159Y-5.449
X6.159Y-5.55
X6.16Y-6.27
X6.16Y-7.435
X6.17Y-5.41
X6.17Y-6.79
X6.17Y-8.45
X6.1787Y-6.25
X6.18Y-5.46
X6.18Y-6.51
X6.18Y-6.73
X6.18Y-6.88
X6.18Y-7.38
X6.1817Y-6.15
X6.2Y-9.74
X6.24Y-8.27
X6.2407Y-6.261
X6.25Y-7.85
X6.2613Y-6.25
X6.27Y-8.13
X6.28Y-8.16
X6.28Y-8.4
X6.282Y-6.261
X6.29Y-5.5
X6.3Y-4.34
X6.3Y-4.85
X6.3Y-6.62
X6.3Y-6.67
X6.3Y-6.72
X6.3Y-7.49
X6.3027Y-6.25
X6.31Y-7.54
X6.31Y-10.38
X6.31Y-10.43
X6.31Y-10.48
X6.31Y-10.52
X6.31Y-10.78
X6.31Y-10.82
X6.31Y-10.88
X6.32Y-4.32
X6.32Y-6.56
X6.32Y-6.83
X6.32Y-8.08
X6.3233Y-6.261
X6.33Y-5.32
X6.33Y-5.65
X6.33Y-5.92
X6.344Y-6.25
X6.35Y-4.52
X6.35Y-4.58
X6.35Y-5.7
X6.35Y-5.87
X6.35Y-5.9
X6.36Y-6.73
X6.3645Y-5.5655
X6.37Y-5.59
X6.37Y-5.64
X6.37Y-10.56
X6.37Y-10.8
X6.38Y-7.33
X6.38Y-7.41
X6.39Y-5.57
X6.39Y-10.3
X6.39Y-10.93
X6.4Y-5.22
X6.42Y-10.83
X6.43Y-4.8658
X6.43Y-5.0
X6.43Y-10.6
X6.44Y-10.65
X6.44Y-11.0
X6.45Y-4.36
X6.45Y-6.08
X6.45Y-6.65
X6.45Y-9.2
X6.46Y-5.64
X6.46Y-5.72
X6.47Y-6.0
X6.47Y-6.67
X6.48Y-5.66
X6.48Y-5.74
X6.49Y-8.48
X6.5Y-4.32
X6.5Y-5.76
X6.51Y-5.6742
X6.51Y-7.83
X6.51Y-8.08
X6.52Y-5.73
X6.52Y-5.97
X6.533Y-5.71
X6.543Y-5.961
X6.55Y-4.34
X6.55Y-4.83
X6.55Y-5.69
X6.55Y-5.78
X6.57Y-10.5
X6.57Y-11.05
X6.58Y-5.13
X6.59Y-10.42
X6.59Y-11.07
X6.6Y-4.35
X6.6Y-5.74
X6.6Y-5.79
X6.6Y-8.41
X6.6Y-8.46
X6.609Y-6.063
X6.61Y-6.15
X6.62Y-6.04
X6.63Y-5.76
X6.64Y-4.81
X6.64Y-10.38
X6.64Y-10.42
X6.64Y-10.5
X6.64Y-10.8
X6.64Y-10.9
X6.67Y-6.4
X6.67Y-8.25
X6.67Y-8.46
X6.68Y-6.07
X6.69Y-5.78
X6.69Y-5.84
X6.69Y-8.38
X6.71Y-8.25
X6.71Y-8.36
X6.72Y-6.12
X6.73Y-6.79
X6.73Y-7.28
X6.75Y-7.32
X6.76Y-10.37
X6.76Y-11.0
X6.78Y-10.54
X6.78Y-10.9
X6.8Y-10.7
X6.8Y-10.87
X6.81Y-4.93
X6.82Y-10.6
X6.824Y-10.863
X6.84Y-10.74
X6.85Y-10.35
X6.86Y-8.36
X6.9Y-6.03
X6.9Y-7.49
X6.9Y-9.0
X6.9037Y-5.852
X6.905Y-8.905
X6.91Y-4.93
X6.91Y-6.7
X6.92Y-6.1
X6.93Y-7.29
X6.93Y-7.41
X6.93Y-7.8
X6.94Y-8.74
X6.94Y-9.16
X6.94Y-10.02
X6.95Y-8.29
X6.95Y-8.51
X6.95Y-8.6
X6.96Y-5.89
X6.96Y-8.84
X6.96Y-9.14
X6.96Y-10.05
X6.98Y-7.14
X6.98Y-8.92
X6.98Y-9.24
X6.98Y-10.07
X7.0Y-4.35
X7.0Y-4.6
X7.0Y-6.96
X7.0Y-9.02
X7.0Y-9.26
X7.0Y-10.091
X7.01Y-6.0
X7.01Y-6.12
X7.02Y-6.91
X7.02Y-7.23
X7.02Y-9.14
X7.02Y-9.46
X7.02Y-10.14
X7.03Y-7.18
X7.04Y-6.85
X7.04Y-7.13
X7.04Y-7.84
X7.04Y-9.2
X7.04Y-9.48
X7.04Y-10.16
X7.04Y-10.9
X7.04Y-11.0
X7.05Y-6.97
X7.05Y-9.06
X7.06Y-6.89
X7.06Y-10.3
X7.08Y-9.3
X7.08Y-9.64
X7.08Y-10.24
X7.08Y-10.54
X7.1Y-9.4
X7.1Y-9.66
X7.1Y-10.26
X7.1Y-10.35
X7.11Y-4.93
X7.12Y-9.38
X7.12Y-9.64
X7.12Y-10.4
X7.12Y-10.49
X7.2Y-6.1
X7.2Y-6.2
X7.2Y-6.31
X7.21Y-4.93
X7.21Y-7.29
X7.21Y-7.41
X7.21Y-7.51
X7.21Y-7.81
X7.29Y-4.85
X7.3Y-4.34
X7.3Y-7.41
X7.3Y-7.51
X7.3Y-7.81
X7.3Y-10.38
X7.3Y-10.43
X7.3Y-10.48
X7.3Y-10.53
X7.3Y-10.58
X7.3Y-10.82
X7.3Y-10.87
X7.3Y-10.92
X7.3Y-10.98
X7.3Y-11.02
X7.3Y-11.08
X7.31Y-4.93
X7.31Y-5.8
X7.31Y-5.9
X7.31Y-7.29
X7.32Y-4.32
X7.39Y-7.81
X7.4Y-7.29
X7.4Y-7.4
X7.4Y-7.51
X7.4Y-8.68
X7.4Y-8.8
X7.4Y-8.88
X7.4Y-8.92
X7.4Y-8.98
X7.4Y-9.02
X7.43Y-5.36
X7.43Y-8.08
X7.44Y-4.93
X7.44Y-5.83
X7.45Y-4.36
X7.5Y-4.32
X7.5Y-5.29
X7.5Y-10.44
X7.5Y-10.5
X7.5Y-10.58
X7.5Y-10.87
X7.5Y-10.92
X7.5Y-10.98
X7.5Y-11.02
X7.5Y-11.08
X7.52Y-10.61
X7.52Y-10.96
X7.54Y-10.71
X7.54Y-10.94
X7.55Y-4.34
X7.55Y-4.87
X7.55Y-5.76
X7.55Y-6.0579
X7.55Y-7.24
X7.55Y-10.47
X7.55Y-11.042
X7.552Y-11.069
X7.56Y-10.36
X7.56Y-10.56
X7.56Y-10.86
X7.57Y-5.8
X7.57Y-7.0
X7.57Y-7.2
X7.57Y-10.0
X7.59Y-4.36
X7.59Y-5.69
X7.59Y-6.34
X7.6Y-7.38
X7.6Y-7.42
X7.6Y-7.5
X7.6Y-7.59
X7.6Y-7.72
X7.6Y-7.8
X7.6Y-8.7
X7.6Y-8.8
X7.6Y-8.88
X7.6Y-8.92
X7.6Y-8.98
X7.6Y-9.02
X7.6Y-9.39
X7.61Y-5.74
X7.61Y-6.2374
X7.63Y-5.68
X7.63Y-6.4374
X7.64Y-4.91
X7.64Y-7.2626
X7.64Y-9.98
X7.65Y-5.66
X7.65Y-6.45
X7.66Y-6.6
X7.66Y-7.02
X7.66Y-7.22
X7.66Y-7.3454
X7.66Y-9.96
X7.67Y-5.64
X7.67Y-6.5528
X7.68Y-7.4626
X7.68Y-9.94
X7.69Y-7.28
X7.69Y-7.32
X7.7Y-4.83
X7.7Y-7.6374
X7.7Y-9.92
X7.71Y-5.8
X7.71Y-5.9
X7.71Y-5.99
X7.71Y-6.1
X7.71Y-6.2
X7.71Y-6.3
X7.71Y-6.39
X7.72Y-7.7374
X7.72Y-9.9
X7.7342Y-9.88
X7.74Y-6.02
X7.75Y-7.34
X7.75Y-7.77
X7.75Y-8.94
X7.77Y-10.78
X7.77Y-10.9
X7.77Y-11.0
X7.79Y-10.3
X7.79Y-10.5
X7.8374Y-9.86
X7.88Y-6.12
X7.88Y-9.04
X7.89Y-6.6
X7.89Y-6.7
X7.89Y-7.21
X7.89Y-7.3
X7.89Y-7.39
X7.89Y-7.5
X7.89Y-7.6
X7.89Y-7.7
X7.89Y-7.81
X7.89Y-7.88
X7.91Y-8.89
X7.92Y-6.0374
X7.92Y-8.7374
X7.94Y-5.33
X7.94Y-6.1
X7.94Y-8.84
X7.94Y-9.4
X7.95Y-9.2
X7.96Y-4.98
X7.96Y-6.1626
X7.96Y-8.932
X7.98Y-6.2626
X7.98Y-8.974
X7.99Y-4.44
X8.0Y-5.79
X8.0Y-5.91
X8.0Y-5.99
X8.0Y-6.09
X8.0Y-6.19
X8.0Y-6.3
X8.0Y-6.4
X8.0Y-8.6
X8.0Y-9.74
X8.0Y-10.48
X8.0Y-10.52
X8.0Y-10.62
X8.0Y-10.72
X8.0Y-10.78
X8.0Y-10.83
X8.0Y-10.88
X8.0Y-10.93
X8.0Y-10.98
X8.0Y-11.03
X8.0Y-11.08
X8.0Y-11.13
X8.02Y-5.02
X8.02Y-5.14
X8.02Y-6.85
X8.03Y-7.82
X8.03Y-8.79
X8.04Y-6.93
X8.04Y-8.99
X8.05Y-7.57
X8.05Y-8.84
X8.05Y-8.91
X8.05Y-8.94
X8.06Y-7.97
X8.06Y-10.09
X8.061Y-8.035
X8.07Y-9.04
X8.09Y-8.02
X8.097Y-4.408
X8.1Y-4.27
X8.1Y-6.81
X8.12Y-4.29
X8.12Y-4.4
X8.138Y-4.156
X8.14Y-7.67
X8.14Y-7.93
X8.15Y-7.82
X8.15Y-9.14
X8.157Y-4.173
X8.16Y-7.95
X8.16Y-8.52
X8.17Y-4.99
X8.17Y-5.08
X8.17Y-5.18
X8.17Y-5.8
X8.17Y-5.89
X8.17Y-5.98
X8.17Y-6.02
X8.17Y-9.12
X8.174Y-4.192
X8.18Y-10.44
X8.184Y-4.239
X8.19Y-5.4
X8.19Y-7.8626
X8.19Y-8.126
X8.19Y-9.03
X8.199Y-4.257
X8.21Y-5.3
X8.21Y-7.7626
X8.213Y-4.275
X8.228Y-4.293
X8.23Y-5.2
X8.23Y-7.6626
X8.23Y-9.17
X8.23Y-9.4
X8.23Y-10.2
X8.23Y-10.5
X8.24Y-9.0
X8.247Y-4.307
X8.25Y-5.1
X8.25Y-7.6
X8.26Y-8.61
X8.27Y-5.0
X8.27Y-7.5
X8.28Y-9.34
X8.29Y-4.9
X8.29Y-7.4
X8.29Y-8.81
X8.3Y-7.48
X8.3Y-7.52
X8.3Y-7.58
X8.3Y-7.62
X8.3Y-7.69
X8.3Y-7.79
X8.3Y-7.9
X8.3Y-9.24
X8.31Y-4.8
X8.31Y-7.26
X8.31Y-8.91
X8.32Y-7.32
X8.32Y-9.14
X8.33Y-4.7
X8.33Y-7.1626
X8.33Y-7.21
X8.33Y-7.28
X8.33Y-7.38
X8.33Y-9.29
X8.34Y-8.87
X8.345Y-5.067
X8.36Y-3.88
X8.36Y-9.24
X8.39Y-11.15
X8.4Y-6.81
X8.45Y-4.18
X8.45Y-9.33
X8.46Y-6.6
X8.47Y-9.36
X8.476Y-7.303
X8.476Y-8.08
X8.48Y-8.72
X8.48Y-9.45
X8.5Y-5.0
X8.5Y-5.1
X8.5Y-5.19
X8.5Y-6.02
X8.5Y-6.08
X8.5Y-6.12
X8.5Y-6.18
X8.5Y-6.22
X8.5Y-6.29
X8.5Y-6.39
X8.5Y-6.47
X8.5Y-11.05
X8.51Y-7.19
X8.51Y-7.27
X8.51Y-7.4
X8.51Y-7.5
X8.51Y-7.7
X8.51Y-7.79
X8.51Y-7.9
X8.52Y-9.3
X8.52Y-9.44
X8.54Y-4.13
X8.54Y-8.08
X8.54Y-9.34
X8.55Y-4.18
X8.55Y-6.48
X8.56Y-9.2
X8.57Y-6.3626
X8.5758Y-9.17
X8.59Y-10.95
X8.6Y-5.8
X8.6Y-5.98
X8.6Y-6.92
X8.6Y-7.0
X8.61Y-8.52
X8.61Y-9.005
X8.61Y-9.09
X8.64Y-4.13
X8.64Y-4.323
X8.64Y-6.3006
X8.64Y-9.6
X8.656Y-4.339
X8.66Y-9.58
X8.671Y-4.356
X8.68Y-10.85
X8.687Y-4.375
X8.69Y-5.1
X8.69Y-5.19
X8.69Y-7.53
X8.69Y-9.2
X8.706Y-4.39
X8.71Y-5.3472
X8.71Y-5.43
X8.71Y-6.02
X8.71Y-7.84
X8.72Y-7.38
X8.73Y-5.06
X8.73Y-6.0
X8.73Y-7.06
X8.74Y-4.7
X8.74Y-6.1
X8.74Y-6.34
X8.741Y-4.24
X8.75Y-4.12
X8.75Y-4.81
X8.75Y-5.16
X8.75Y-6.19
X8.7626Y-5.36
X8.77Y-4.9
X8.799Y-4.389
X8.8Y-10.75
X8.81Y-5.0
X8.81Y-5.05
X8.81Y-5.47
X8.84Y-6.04
X8.842Y-4.256
X8.85Y-4.12
X8.85Y-5.64
X8.85Y-6.27
X8.85Y-8.35
X8.86Y-4.4
X8.86Y-6.37
X8.8658Y-5.66
X8.88Y-5.68
X8.88Y-6.46
X8.88Y-8.0
X8.88Y-8.33
X8.89Y-5.83
X8.9Y-4.368
X8.9Y-5.75
X8.9Y-6.6
X8.9Y-9.005
X8.9Y-9.095
X8.9Y-9.31
X8.9Y-10.64
X8.91Y-7.81
X8.91Y-7.9
X8.91Y-8.0
X8.91Y-8.1
X8.92Y-6.71
X8.92Y-7.02
X8.92Y-7.08
X8.92Y-7.12
X8.92Y-7.28
X8.92Y-7.39
X8.9315Y-5.77
X8.94Y-4.268
X8.95Y-4.12
X8.95Y-6.26
X8.95Y-8.3
X8.95Y-8.5
X8.96Y-9.64
X8.97Y-6.1
X8.98Y-9.62
X9.0Y-5.0
X9.0Y-5.08
X9.0Y-5.12
X9.0Y-6.13
X9.0Y-6.37
X9.001Y-4.355
X9.01Y-5.8
X9.01Y-5.98
X9.01Y-6.02
X9.01Y-6.4
X9.01Y-7.13
X9.01Y-9.0
X9.029Y-5.946
X9.03Y-7.0
X9.03Y-7.44
X9.04Y-7.47
X9.048Y-4.285
X9.05Y-4.12
X9.05Y-5.03
X9.05Y-6.24
X9.06Y-4.86
X9.06Y-7.77
X9.1Y-4.338
X9.13Y-8.16
X9.14Y-8.27
X9.147Y-4.303
X9.15Y-4.12
X9.15Y-4.78
X9.15Y-6.6
X9.155Y-8.462
X9.16Y-5.85
X9.16Y-6.84
X9.16Y-7.2
X9.16Y-8.21
X9.1645Y-7.3845
X9.17Y-4.98
X9.174Y-8.54
X9.176Y-7.101
X9.177Y-4.77
X9.19Y-5.11
X9.19Y-5.27
X9.19Y-6.16
X9.19Y-6.95
X9.19Y-8.31
X9.197Y-4.321
X9.2Y-6.0
X9.2Y-6.08
X9.2Y-6.29
X9.2Y-6.36
X9.2Y-6.49
X9.21Y-6.92
X9.21Y-8.14
X9.21Y-8.26
X9.23Y-7.5
X9.23Y-8.16
X9.24Y-6.77
X9.245Y-9.0
X9.245Y-9.105
X9.245Y-9.305
X9.25Y-5.08
X9.25Y-7.36
X9.25Y-8.11
X9.26Y-6.74
X9.27Y-6.69
X9.27Y-8.06
X9.28Y-7.08
X9.28Y-7.46
X9.29Y-6.09
X9.3Y-5.15
X9.3Y-5.3
X9.31Y-6.05
X9.31Y-6.2
X9.31Y-7.41
X9.32Y-5.24
X9.32Y-5.4
X9.33Y-4.72
X9.33Y-4.88
X9.33Y-4.99
X9.33Y-5.11
X9.34Y-5.2
X9.34Y-5.99
X9.34Y-6.53
X9.34Y-7.36
X9.34Y-8.57
X9.342Y-5.253
X9.35Y-4.65
X9.35Y-7.99
X9.36Y-5.47
X9.36Y-7.43
X9.36Y-7.71
X9.36Y-8.35
X9.3622Y-6.41
X9.369Y-5.363
X9.37Y-7.31
X9.38Y-5.94
X9.38Y-7.67
X9.384Y-7.33
X9.39Y-5.89
X9.39Y-7.26
X9.39Y-7.92
X9.4Y-6.06
X9.4Y-11.1
X9.439Y-5.14
X9.439Y-5.356
X9.44Y-7.08
X9.48Y-4.7
X9.48Y-4.8
X9.48Y-4.87
X9.48Y-5.0
X9.48Y-5.08
X9.49Y-11.0
X9.495Y-9.21
X9.5Y-5.437
X9.5Y-7.07
X9.51Y-6.19
X9.51Y-7.13
X9.51Y-7.23
X9.51Y-7.56
X9.51Y-7.96
X9.51Y-8.03
X9.52Y-5.28
X9.52Y-5.32
X9.52Y-7.61
X9.52Y-7.91
X9.522Y-5.134
X9.53Y-5.44
X9.53Y-6.24
X9.53Y-7.31
X9.53Y-8.0
X9.531Y-7.243
X9.54Y-9.3
X9.545Y-8.995
X9.545Y-9.1
X9.55Y-4.905
X9.55Y-6.29
X9.55Y-7.34
X9.565Y-9.38
X9.57Y-6.34
X9.57Y-7.44
X9.58Y-7.92
X9.58Y-8.0
X9.58Y-8.06
X9.59Y-6.48
X9.59Y-7.54
X9.59Y-10.9
X9.6Y-4.43
X9.61Y-6.53
X9.61Y-7.56
X9.63Y-6.58
X9.63Y-7.64
X9.63Y-9.44
X9.64Y-5.89
X9.641Y-5.327
X9.65Y-6.19
X9.65Y-6.55
X9.65Y-6.63
X9.65Y-7.88
X9.65Y-9.4
X9.66Y-5.19
X9.66Y-5.3
X9.67Y-6.24
X9.67Y-6.5
X9.67Y-6.92
X9.67Y-7.61
X9.69Y-6.29
X9.69Y-6.41
X9.69Y-6.77
X9.69Y-6.86
X9.69Y-7.26
X9.69Y-7.66
X9.694Y-5.731
X9.7Y-10.79
X9.71Y-5.71
X9.71Y-6.25
X9.71Y-6.49
X9.71Y-7.46
X9.72Y-7.9374
X9.72Y-8.36
X9.73Y-6.05
X9.73Y-6.54
X9.73Y-7.51
X9.75Y-3.85
X9.75Y-4.51
X9.75Y-4.62
X9.75Y-4.69
X9.75Y-4.8
X9.75Y-4.9
X9.75Y-5.0
X9.75Y-5.1
X9.75Y-5.3
X9.75Y-5.39
X9.75Y-5.97
X9.75Y-6.59
X9.75Y-7.96
X9.75Y-8.3
X9.76Y-7.6922
X9.76Y-9.0
X9.76Y-9.13
X9.763Y-5.927
X9.77Y-5.95
X9.77Y-6.64
X9.78Y-7.31
X9.78Y-7.66
X9.79Y-9.3
X9.79Y-10.7
X9.8Y-3.88
X9.8Y-9.405
X9.815Y-8.98
X9.815Y-9.02
X9.83Y-4.37
X9.85Y-4.48
X9.89Y-10.6
X9.9Y-6.94
X9.9Y-8.31
X9.9Y-8.5
X9.91Y-8.26
X9.92Y-6.89
X9.93Y-5.93
X9.93Y-8.01
X9.935Y-4.38
X9.94Y-5.54
X9.95Y-4.18
X9.95Y-4.81
X9.95Y-5.99
X9.95Y-6.83
X9.95Y-8.21
X9.95Y-9.07
X9.96Y-9.23
X9.96Y-9.35
X9.97Y-6.78
X9.97Y-7.36
X9.975Y-5.08
X9.98Y-4.8
X9.98Y-5.19
X9.98Y-5.4
X9.98Y-5.64
X9.98Y-6.33
X9.98Y-8.16
X9.99Y-9.45
X10.0Y-5.21
X10.0Y-5.3
X10.0Y-5.66
X10.0Y-6.74
X10.0Y-8.11
X10.003Y-4.939
X10.01Y-5.08
X10.01Y-6.0
X10.01Y-7.07
X10.02Y-4.64
X10.02Y-4.72
X10.02Y-4.88
X10.02Y-5.25
X10.02Y-5.75
X10.02Y-7.258
X10.02Y-9.26
X10.03Y-6.3
X10.03Y-7.23
X10.04Y-5.0
X10.04Y-5.3
X10.04Y-5.77
X10.04Y-7.43
X10.05Y-4.55
X10.05Y-6.13
X10.06Y-5.2315
X10.06Y-5.68
X10.06Y-7.64
X10.065Y-5.016
X10.07Y-6.37
X10.08Y-7.86
X10.08Y-8.02
X10.09Y-4.4279
X10.09Y-6.76
X10.09Y-7.0
X10.09Y-7.98
X10.1Y-4.94
X10.1Y-5.34
X10.1Y-6.87
X10.1Y-7.14
X10.109Y-4.746
X10.11Y-7.3
X10.11Y-8.02
X10.12Y-4.38
X10.12Y-4.7
X10.12Y-4.96
X10.12Y-5.4617
X10.13Y-9.56
X10.14Y-4.67
X10.145Y-4.618
X10.15Y-4.8374
X10.15Y-4.89
X10.17Y-5.0
X10.17Y-5.06
X10.18Y-4.71
X10.18Y-4.86
X10.18Y-5.62
X10.19Y-4.77
X10.19Y-5.54
X10.197Y-4.496
X10.2Y-4.59
X10.24Y-5.52
X10.24Y-8.96
X10.25Y-4.22
X10.25Y-4.4
X10.25Y-4.55
X10.25Y-6.9
X10.26Y-5.5
X10.26Y-6.08
X10.26Y-6.39
X10.26Y-7.4
X10.26Y-8.03
X10.26Y-9.04
X10.27Y-7.9
X10.28Y-4.81
X10.28Y-5.48
X10.28Y-9.33
X10.29Y-4.85
X10.3Y-7.01
X10.3Y-7.09
X10.3Y-7.18
X10.3Y-7.23
X10.3Y-7.3
X10.3Y-8.095
X10.3Y-8.2
X10.3Y-10.82
X10.305Y-4.4
X10.305Y-5.17
X10.31Y-4.8654
X10.31Y-4.8913
X10.31Y-9.2
X10.316Y-4.718
X10.32Y-9.5
X10.32Y-10.73
X10.33Y-5.28
X10.33Y-5.32
X10.34Y-8.395
X10.34Y-8.86
X10.34Y-9.4
X10.34Y-10.8
X10.35Y-4.02
X10.36Y-8.95
X10.36Y-9.1
X10.36Y-10.65
X10.37Y-7.83
X10.38Y-4.4
X10.38Y-4.55
X10.38Y-5.54
X10.38Y-7.0
X10.38Y-7.87
X10.38Y-8.21
X10.38Y-10.55
X10.383Y-5.41
X10.39Y-8.1
X10.4Y-4.2
X10.4Y-5.369
X10.4Y-6.07
X10.401Y-5.258
X10.405Y-4.73
X10.406Y-4.891
X10.41Y-7.56
X10.42Y-5.3547
X10.42Y-5.96
X10.42Y-8.67
X10.425Y-10.04
X10.425Y-10.305
X10.44Y-5.3374
X10.44Y-5.94
X10.44Y-8.58
X10.444Y-4.709
X10.45Y-5.0
X10.46Y-5.56
X10.467Y-4.709
X10.47Y-4.8
X10.515Y-10.3
X10.529Y-5.312
X10.53Y-8.06
X10.54Y-8.43
X10.545Y-10.78
X10.55Y-5.323
X10.55Y-6.035
X10.55Y-6.2
X10.55Y-6.3
X10.56Y-9.16
X10.56Y-9.82
X10.57Y-7.0
X10.5703Y-5.312
X10.574Y-6.3
X10.58Y-7.3
X10.58Y-9.36
X10.59Y-6.353
X10.59Y-6.4
X10.6Y-10.04
X10.609Y-5.313
X10.61Y-6.045
X10.61Y-6.5
X10.61Y-7.29
X10.62Y-4.34
X10.62Y-4.61
X10.626Y-6.958
X10.63Y-5.322
X10.63Y-6.59
X10.64Y-7.88
X10.64Y-8.5
X10.64Y-9.8
X10.64Y-11.09
X10.65Y-4.54
X10.65Y-7.1
X10.6503Y-5.312
X10.651Y-7.267
X10.66Y-9.77
X10.67Y-4.42
X10.67Y-5.995
X10.67Y-6.07
X10.68Y-4.61
X10.6872Y-10.0392
X10.69Y-4.83
X10.7Y-4.06
X10.7Y-7.2
X10.703Y-5.312
X10.705Y-7.345
X10.717Y-4.616
X10.72Y-4.58
X10.724Y-5.322
X10.724Y-7.137
X10.73Y-4.54
X10.73Y-7.29
X10.73Y-7.94
X10.73Y-8.41
X10.7407Y-4.62
X10.7447Y-5.312
X10.75Y-4.29
X10.755Y-10.11
X10.755Y-10.18
X10.757Y-4.591
X10.76Y-4.71
X10.76Y-9.5
X10.78Y-9.2
X10.782Y-5.311
X10.7964Y-6.36
X10.798Y-4.597
X10.8Y-4.6207
X10.8Y-5.49
X10.8027Y-5.321
X10.81Y-6.92
X10.8193Y-4.706
X10.82Y-4.892
X10.822Y-4.239
X10.822Y-4.57
X10.8233Y-5.311
X10.83Y-7.16
X10.83Y-7.32
X10.84Y-4.79
X10.84Y-10.04
X10.84Y-11.0
X10.844Y-5.321
X10.846Y-4.709
X10.85Y-9.05
X10.86Y-4.4
X10.86Y-5.54
X10.8647Y-5.311
X10.873Y-4.705
X10.885Y-5.321
X10.9Y-4.61
X10.9Y-4.77
X10.9Y-4.82
X10.92Y-4.55
X10.92Y-4.98
X10.92Y-5.5
X10.928Y-6.86
X10.93Y-5.58
X10.94Y-10.23
X10.94Y-11.14
X10.95Y-5.52
X10.95Y-6.56
X10.96Y-11.12
X10.97Y-10.32
X10.99Y-6.41
X10.995Y-7.9
X11.0Y-6.105
X11.01Y-4.77
X11.04Y-10.25
X11.04Y-10.98
X11.06Y-4.78
X11.07Y-4.22
X11.1Y-10.6
X11.1Y-10.95
X11.11Y-5.58
X11.1339Y-5.74
X11.17Y-11.07
X11.175Y-4.729
X11.184Y-5.201
X11.199Y-4.73
X11.2Y-9.84
X11.204Y-5.1
X11.2217Y-4.7296
X11.225Y-4.999
X11.23Y-10.44
X11.241Y-4.717
X11.252Y-4.696
X11.27Y-8.19
X11.29Y-6.005
X11.29Y-6.1
X11.33Y-7.3
X11.33Y-7.466
X11.33Y-9.29
X11.34Y-7.09
X11.35Y-4.4
X11.35Y-7.2
X11.35Y-7.4
X11.35Y-7.48
X11.358Y-7.11
X11.37Y-4.42
X11.38Y-10.42
X11.39Y-4.44
X11.41Y-4.46
X11.42Y-3.92
X11.42Y-4.51
X11.45Y-4.47
X11.59Y-7.25
X11.59Y-7.5
X11.59Y-8.14
X11.59Y-8.57
X11.64Y-7.45
X11.64Y-7.53
X11.64Y-10.11
X11.64Y-10.298
X11.65Y-7.37
X11.66Y-6.87
X11.66Y-7.05
X11.66Y-7.56
X11.66Y-10.18
X11.66Y-10.28
X11.66Y-10.74
X11.66Y-10.84
X11.68Y-4.81
X11.68Y-7.44
X11.68Y-8.54
X11.68Y-9.64
X11.685Y-4.695
X11.71Y-5.405
X11.71Y-5.7
X11.71Y-10.13
X11.71Y-10.67
X11.72Y-6.2
X11.72Y-9.56
X11.72Y-10.2
X11.73Y-4.51
X11.73Y-5.9
X11.73Y-7.36
X11.73Y-8.46
X11.73Y-10.26
X11.74Y-4.05
X11.74Y-4.64
X11.74Y-7.11
X11.74Y-7.18
X11.74Y-7.45
X11.74Y-7.48
X11.74Y-8.29
X11.74Y-9.38
X11.74Y-10.02
X11.74Y-10.48
X11.79Y-5.7626
X11.79Y-5.96
X11.8Y-4.86
X11.81Y-6.1
X11.81Y-7.75
X11.8242Y-10.07
X11.83Y-4.74
X11.83Y-6.0
X11.838Y-7.433
X11.84Y-7.11
X11.84Y-7.31
X11.84Y-8.32
X11.84Y-8.41
X11.84Y-9.42
X11.84Y-9.51
X11.84Y-10.05
X11.84Y-10.52
X11.84Y-10.62
X11.85Y-7.46
X11.86Y-5.3626
X11.86Y-6.4
X11.86Y-6.9113
X11.86Y-7.22
X11.86Y-8.0187
X11.86Y-9.1171
X11.86Y-10.2218
X11.86Y-10.25
X11.88Y-5.46
X11.88Y-6.31
X11.88Y-6.9632
X11.88Y-8.067
X11.88Y-8.75
X11.88Y-9.1654
X11.88Y-10.2701
X11.91Y-5.5626
X11.91Y-6.23
X11.91Y-6.9947
X11.91Y-8.0985
X11.91Y-8.8
X11.91Y-9.1969
X11.91Y-10.3016
X11.94Y-5.6626
X11.94Y-6.06
X11.94Y-7.0262
X11.94Y-8.13
X11.94Y-8.9
X11.94Y-9.2283
X11.94Y-10.3331
X11.97Y-5.7626
X11.97Y-7.0577
X11.97Y-8.1615
X11.97Y-9.2598
X11.97Y-10.3646
X11.99Y-6.94
X11.99Y-7.4672
X11.99Y-7.66
X11.99Y-8.5709
X11.99Y-9.6693
X11.99Y-10.774
X12.01Y-4.6626
X12.01Y-7.5
X12.01Y-7.7
X12.01Y-8.6024
X12.01Y-9.7008
X12.01Y-10.8055
X12.03Y-4.9
X12.03Y-7.5302
X12.03Y-7.8
X12.03Y-8.6339
X12.03Y-9.7323
X12.03Y-10.837
X12.05Y-7.5617
X12.05Y-7.9
X12.05Y-8.6654
X12.05Y-9.7638
X12.05Y-10.8685
X12.06Y-4.7518
X12.07Y-4.8626
X12.07Y-6.87
X12.07Y-7.5931
X12.07Y-8.6969
X12.07Y-9.7953
X12.07Y-10.06
X12.07Y-10.9
X12.08Y-6.1
X12.09Y-8.04
X12.09Y-10.25
X12.1Y-6.0
X12.11Y-7.34
X12.11Y-8.44
X12.11Y-9.54
X12.11Y-10.15
X12.12Y-5.91
X12.12Y-10.65
X12.13Y-8.41
X12.13Y-9.51
X12.13Y-10.2
X12.14Y-7.22
X12.14Y-7.31
X12.14Y-10.62
X12.15Y-4.94
X12.15Y-5.05
X12.15Y-5.16
X12.15Y-8.32
X12.15Y-9.41
X12.15Y-10.18
X12.15Y-10.52
X12.1642Y-10.11
X12.17Y-7.01
X12.17Y-8.29
X12.17Y-9.39
X12.17Y-10.49
X12.18Y-6.95
X12.18Y-6.983
X12.18Y-7.06
X12.18Y-7.09
X12.18Y-7.18
X12.18Y-7.47
X12.18Y-7.5
X12.18Y-7.53
X12.18Y-7.56
X12.18Y-7.59
X12.18Y-8.05
X12.18Y-8.09
X12.18Y-8.12
X12.18Y-8.15
X12.18Y-8.18
X12.18Y-8.56
X12.18Y-8.59
X12.18Y-8.62
X12.18Y-8.65
X12.18Y-8.68
X12.18Y-9.15
X12.18Y-9.18
X12.18Y-9.21
X12.18Y-9.25
X12.18Y-9.28
X12.18Y-9.66
X12.18Y-9.69
X12.18Y-9.72
X12.18Y-9.75
X12.18Y-9.78
X12.18Y-10.26
X12.18Y-10.29
X12.18Y-10.32
X12.18Y-10.35
X12.18Y-10.38
X12.18Y-10.76
X12.18Y-10.79
X12.18Y-10.82
X12.18Y-10.85
X12.18Y-10.89
X12.25Y-5.25
X12.27Y-5.8
X12.27Y-7.75
X12.28Y-5.35
X12.28Y-6.95
X12.28Y-6.99
X12.28Y-7.03
X12.28Y-7.09
X12.28Y-7.5
X12.28Y-7.58
X12.28Y-7.61
X12.2828Y-7.4672
X12.2878Y-9.2378
X12.29Y-7.54
X12.29Y-8.05
X12.29Y-8.15
X12.29Y-8.62
X12.29Y-8.7
X12.29Y-9.18
X12.29Y-9.29
X12.29Y-9.69
X12.29Y-10.76
X12.295Y-9.215
X12.3Y-10.91
X12.3053Y-9.7953
X12.31Y-7.08
X12.31Y-8.08
X12.31Y-8.55
X12.31Y-8.6647
X12.31Y-9.15
X12.31Y-9.65
X12.31Y-9.75
X12.315Y-4.84
X12.315Y-4.92
X12.315Y-4.995
X12.315Y-5.1
X12.315Y-5.2
X12.315Y-5.275
X12.315Y-5.32
X12.315Y-5.38
X12.315Y-5.595
X12.315Y-5.695
X12.3164Y-10.26
X12.32Y-7.18
X12.32Y-10.3961
X12.32Y-10.79
X12.32Y-10.86
X12.325Y-10.295
X12.33Y-8.11
X12.33Y-8.1923
X12.33Y-9.72
X12.3334Y-10.3646
X12.3335Y-10.3265
X12.34Y-5.42
X12.34Y-7.61
X12.34Y-8.58
X12.345Y-4.88
X12.35Y-10.837
X12.355Y-4.7
X12.36Y-5.5
X12.36Y-7.04
X12.37Y-11.0
X12.38Y-4.84
X12.38Y-8.14
X12.38Y-9.28
X12.38Y-10.35
X12.4Y-7.42
X12.425Y-9.64
X12.43Y-7.01
X12.43Y-8.0985
X12.43Y-8.145
X12.43Y-10.355
X12.45Y-10.72
X12.45Y-10.96
X12.46Y-7.42
X12.47Y-8.52
X12.47Y-9.64
X12.4842Y-9.94
X12.49Y-6.2
X12.49Y-10.66
X12.49Y-10.89
X12.5Y-6.7
X12.5Y-7.01
X12.5Y-7.49
X12.5Y-8.45
X12.5Y-8.69
X12.5Y-9.0
X12.5Y-9.22
X12.5Y-9.55
X12.5Y-9.75
X12.5Y-10.78
X12.5022Y-9.2598
X12.5072Y-10.8528
X12.51Y-4.85
X12.51Y-6.1
X12.51Y-7.36
X12.51Y-7.436
X12.51Y-8.08
X12.51Y-8.12
X12.51Y-8.21
X12.51Y-9.62
X12.51Y-9.68
X12.51Y-10.73
X12.51Y-10.82
X12.52Y-5.1
X12.52Y-6.93
X12.52Y-6.98
X12.52Y-7.11
X12.52Y-7.4607
X12.52Y-7.52
X12.52Y-7.56
X12.52Y-8.04
X12.52Y-8.54
X12.52Y-8.58
X12.52Y-8.62
X12.52Y-8.66
X12.52Y-9.15
X12.52Y-9.19
X12.52Y-9.31
X12.52Y-9.72
X12.52Y-9.78
X12.52Y-10.25
X12.52Y-10.29
X12.52Y-10.33
X12.52Y-10.41
X12.56Y-7.75
X12.57Y-6.9042
X12.61Y-4.75
X12.61Y-6.0
X12.6121Y-9.96
X12.615Y-7.435
X12.6151Y-10.2528
X12.62Y-6.97
X12.62Y-7.0
X12.62Y-7.11
X12.62Y-7.18
X12.62Y-7.22
X12.62Y-7.32
X12.62Y-7.4607
X12.62Y-7.49
X12.62Y-7.52
X12.62Y-7.56
X12.62Y-8.05
X12.62Y-8.08
X12.62Y-8.12
X12.62Y-8.19
X12.62Y-8.32
X12.62Y-8.41
X12.62Y-8.54
X12.62Y-8.58
X12.62Y-8.62
X12.62Y-8.66
X12.62Y-8.69
X12.62Y-9.15
X12.62Y-9.19
X12.62Y-9.22
X12.62Y-9.31
X12.62Y-9.51
X12.62Y-9.63
X12.62Y-9.68
X12.62Y-9.72
X12.62Y-9.75
X12.62Y-9.78
X12.62Y-10.29
X12.62Y-10.32
X12.62Y-10.41
X12.62Y-10.73
X12.62Y-10.78
X12.62Y-10.82
X12.62Y-10.85
X12.62Y-10.89
X12.6279Y-9.98
X12.63Y-4.66
X12.63Y-5.9
X12.63Y-8.29
X12.63Y-9.42
X12.63Y-10.62
X12.6387Y-10.0
X12.64Y-9.38
X12.65Y-5.29
X12.65Y-6.5
X12.65Y-10.49
X12.65Y-10.52
X12.66Y-6.9317
X12.665Y-10.755
X12.67Y-5.2
X12.67Y-6.6
X12.68Y-6.9632
X12.68Y-8.08
X12.68Y-9.1339
X12.68Y-9.1654
X12.68Y-10.2386
X12.69Y-5.24
X12.69Y-7.0892
X12.69Y-8.0348
X12.69Y-8.19
X12.69Y-9.2913
X12.69Y-10.2701
X12.69Y-10.3961
X12.71Y-5.3374
X12.71Y-7.4357
X12.71Y-8.5387
X12.71Y-9.6378
X12.71Y-10.7425
X12.73Y-5.6374
X12.73Y-7.4672
X12.73Y-8.5702
X12.73Y-9.6693
X12.73Y-10.78
X12.75Y-5.4374
X12.75Y-6.04
X12.75Y-7.4987
X12.75Y-8.6017
X12.75Y-9.7008
X12.75Y-10.8055
X12.76Y-5.0
X12.77Y-6.44
X12.77Y-7.5302
X12.77Y-8.6332
X12.77Y-9.7323
X12.77Y-10.837
X12.79Y-5.1374
X12.79Y-6.46
X12.79Y-7.5617
X12.79Y-8.6647
X12.79Y-9.7638
X12.79Y-10.8685
X12.81Y-4.03
X12.81Y-4.17
X12.81Y-5.0374
X12.81Y-6.15
X12.81Y-7.6258
X12.81Y-8.7266
X12.82Y-9.82
X12.82Y-10.9258
X12.84Y-8.135
X12.845Y-8.69
X12.85Y-7.595
X12.85Y-7.75
X12.85Y-9.25
X12.855Y-5.425
X12.855Y-7.035
X12.855Y-9.78
X12.855Y-10.35
X12.865Y-5.22
X12.875Y-10.895
X12.88Y-8.1
X12.88Y-9.1
X12.88Y-9.1969
X12.9Y-5.46
X12.9Y-5.8
X12.9Y-7.19
X12.9Y-8.29
X12.9Y-9.39
X12.9Y-9.86
X12.9Y-10.5
X12.915Y-5.12
X12.92Y-5.26
X12.92Y-5.9
X12.92Y-7.22
X12.92Y-8.32
X12.92Y-9.42
X12.92Y-9.88
X12.92Y-10.53
X12.94Y-5.16
X12.94Y-6.0
X12.94Y-7.31
X12.94Y-8.42
X12.94Y-9.52
X12.94Y-9.9
X12.94Y-10.62
X12.96Y-5.02
X12.96Y-5.06
X12.96Y-6.1
X12.96Y-7.34
X12.96Y-8.45
X12.96Y-9.55
X12.96Y-9.92
X12.96Y-10.65
X13.0Y-4.97
X13.04Y-7.75
X13.06Y-8.54
X13.06Y-8.7
X13.09Y-7.6
X13.09Y-7.66
X13.09Y-8.595
X13.09Y-8.705
X13.11Y-7.03
X13.11Y-8.13
X13.12Y-5.5
X13.12Y-9.23
X13.12Y-10.34
X13.12Y-10.98
X13.13Y-4.83
X13.13Y-4.905
X13.13Y-5.0
X13.13Y-5.1
X13.13Y-5.2
X13.13Y-5.3
X13.13Y-5.4
X13.14Y-7.5
X13.14Y-7.94
X13.16Y-4.38
X13.16Y-4.51
X13.16Y-7.2
X13.16Y-7.4
X13.16Y-7.87
X13.18Y-11.14
X13.2Y-11.12
X13.215Y-4.685
X13.22Y-11.1
X13.23Y-4.72
X13.24Y-11.08
X13.34Y-8.85
X13.36Y-8.95
X13.38Y-7.3
X13.38Y-7.85
X13.38Y-8.4
X13.38Y-9.16
X13.395Y-4.5
X13.395Y-4.68
X13.395Y-4.88
X13.395Y-4.98
X13.395Y-5.09
X13.395Y-5.195
X13.395Y-5.275
X13.395Y-5.32
X13.395Y-5.39
X13.4Y-8.04
X13.4Y-8.5
X13.4Y-8.6
X13.4Y-9.13
X13.435Y-4.78
X13.445Y-5.02
X13.45Y-4.72
X13.45Y-4.82
X13.485Y-8.595
X13.508Y-6.652
X13.526Y-5.438
X13.69Y-6.34
X13.69Y-8.52
X13.69Y-8.57
X13.69Y-8.62
X13.7Y-4.7
X13.7Y-4.795
X13.7Y-4.9
X13.7Y-5.0
X13.7Y-5.1
X13.7Y-5.2
X13.7Y-5.295
X13.73Y-8.64
X13.75Y-8.68
X13.8Y-11.07
X13.83Y-9.68
X13.86Y-8.56
X13.86Y-8.7
X13.895Y-4.9
X13.895Y-4.995
X13.895Y-5.205
X13.895Y-5.3
X13.895Y-5.4
X13.9Y-4.5
X13.9Y-4.605
X13.9Y-4.71
X13.9Y-6.72
X13.9Y-8.31
X13.9Y-8.505
X13.9Y-8.59
X13.905Y-8.68
X13.92Y-8.72
X13.95Y-7.15
X13.95Y-7.7
X13.95Y-7.75
X13.96Y-8.66
X13.97Y-7.6
X13.97Y-7.73
X13.99Y-7.49
X13.99Y-7.71
X14.027Y-9.635
X14.03Y-9.29
X14.04Y-9.66
X14.05Y-9.7
X14.08Y-10.05
X14.105Y-4.605
X14.105Y-4.71
X14.105Y-4.805
X14.105Y-4.88
X14.105Y-4.92
X14.105Y-4.99
X14.105Y-5.08
X14.105Y-5.12
X14.105Y-5.18
X14.105Y-5.285
X14.105Y-5.395
X14.15Y-6.715
X14.15Y-7.225
X14.15Y-8.5
X14.15Y-8.59
X14.15Y-8.69
X14.15Y-8.895
X14.22Y-6.37
X14.22Y-7.12
X14.24Y-6.82
X14.24Y-7.16
X14.25Y-10.11
X14.375Y-9.02
X14.38Y-7.08
X14.38Y-7.24
X14.38Y-8.88
X14.38Y-8.92
X14.38Y-9.12
X14.385Y-6.905
X14.385Y-8.475
X14.385Y-8.52
X14.385Y-8.57
X14.385Y-8.62
X14.385Y-8.67
X14.385Y-8.72
X14.4Y-4.705
X14.4Y-4.8
X14.4Y-4.9
X14.4Y-4.995
X14.4Y-7.0
X14.4Y-7.22
X14.405Y-5.1
X14.405Y-5.195
X14.405Y-5.285
X14.405Y-5.385
X14.585Y-8.375
X14.585Y-8.43
X14.585Y-8.48
X14.585Y-8.525
X14.585Y-8.58
X14.585Y-8.625
X14.585Y-8.68
X14.59Y-7.1
X14.59Y-7.6
X14.6Y-5.35
X14.6Y-6.5
X14.61Y-7.5
X14.61Y-8.58
X14.62Y-5.25
X14.62Y-6.6
X14.63Y-7.18
X14.63Y-7.23
X14.63Y-7.4
X14.63Y-8.48
X14.64Y-5.16
X14.64Y-6.38
X14.65Y-7.3
X14.65Y-8.38
X14.65Y-8.62
X14.65Y-8.76
X14.6693Y-8.65
X14.67Y-6.42
X14.67Y-7.15
X14.67Y-7.2
X14.67Y-8.28
X14.67Y-8.52
X14.6893Y-8.56
X14.69Y-6.32
X14.69Y-8.1
X14.69Y-8.42
X14.69Y-8.66
X14.69Y-9.1
X14.7093Y-8.46
X14.71Y-6.22
X14.71Y-7.66
X14.71Y-8.3
X14.71Y-9.0
X14.712Y-8.55
X14.73Y-6.12
X14.73Y-7.64
X14.73Y-8.2
X14.73Y-8.342
X14.73Y-8.45
X14.73Y-8.9
X14.75Y-6.02
X14.75Y-7.48
X14.75Y-8.36
X14.75Y-8.8
X14.77Y-5.92
X14.77Y-7.39
X14.77Y-8.26
X14.77Y-8.7
X14.78Y-5.06
X14.79Y-7.56
X14.79Y-7.73
X14.79Y-8.16
X14.79Y-8.6
X14.79Y-8.84
X14.8Y-7.0
X14.8Y-7.1
X14.8Y-8.7
X14.81Y-7.175
X14.81Y-7.225
X14.81Y-7.27
X14.81Y-7.35
X14.81Y-7.45
X14.81Y-7.71
X14.81Y-8.06
X14.81Y-8.5
X14.81Y-8.64
X14.82Y-4.95
X14.83Y-6.9
X14.83Y-7.0
X14.83Y-7.96
X14.83Y-8.4
X14.83Y-8.8
X14.83Y-8.96
X14.835Y-8.6
X14.86Y-4.86
X14.9Y-4.65
X14.92Y-4.75
X14.95Y-7.385
X14.95Y-7.58
X14.95Y-8.185
X14.95Y-8.325
X14.95Y-8.385
X14.95Y-8.49
X14.95Y-8.59
X14.95Y-8.68
X14.955Y-7.925
X14.955Y-8.28
X14.978Y-7.649
X15.045Y-7.375
X15.05Y-7.51
X15.05Y-7.58
X15.05Y-7.76
X15.05Y-7.91
X15.05Y-8.015
X15.05Y-8.22
X15.05Y-8.315
X15.05Y-8.42
X15.05Y-8.52
X15.05Y-8.62
X15.05Y-8.725
X15.055Y-5.87
X15.055Y-5.97
X15.055Y-6.17
X15.055Y-6.575
X15.055Y-7.67
X15.061Y-6.664
X15.1Y-4.6
X15.14Y-4.7
X15.15Y-8.275
X15.15Y-8.375
X15.15Y-8.575
X15.15Y-9.03
X15.18Y-4.8
X15.22Y-4.9
X15.26Y-5.0
X15.3Y-5.1
X15.34Y-5.2
X15.34Y-6.4635
X15.38Y-5.3
X15.38Y-6.5635
X15.4Y-4.07
X15.4Y-8.0365
X15.42Y-4.17
X15.42Y-7.9365
X15.44Y-4.4
X15.44Y-8.5636
X15.46Y-4.42
X15.47Y-8.53
X15.479Y-8.3666
X15.48Y-4.44
X15.5Y-4.46
X15.5Y-8.2636
X15.52Y-4.35
X15.52Y-6.9635
X15.54Y-4.48
X15.54Y-10.11
X15.835Y-5.9
X15.835Y-6.0
X15.835Y-6.105
X15.835Y-6.195
X15.835Y-6.31
X15.835Y-6.395
X15.835Y-6.525
X15.835Y-6.6
X15.835Y-6.795
X15.835Y-7.0
X15.835Y-7.1
X15.835Y-7.2
X15.835Y-7.405
X15.835Y-7.495
X15.835Y-7.6
X15.835Y-7.695
X15.835Y-7.8
X15.835Y-7.895
X15.835Y-7.975
X15.835Y-8.09
X15.835Y-8.175
X15.835Y-8.22
X15.835Y-8.28
X15.835Y-8.33
X15.835Y-8.405
X15.835Y-8.475
X15.835Y-8.605
X15.835Y-8.675
X15.835Y-8.775
X15.835Y-8.825
X15.835Y-8.9
X16.01Y-4.37
X16.027Y-7.645
X16.05Y-7.95
X16.146Y-7.647
X16.15Y-5.885
X16.15Y-6.0
X16.15Y-6.1
X16.15Y-6.15
X16.15Y-6.2
X16.15Y-6.3
X16.15Y-6.395
X16.15Y-6.5
X16.15Y-6.595
X16.15Y-6.8
X16.15Y-7.0
X16.15Y-7.1
X16.15Y-7.2
X16.15Y-7.4
X16.15Y-7.6
X16.15Y-7.9
X16.15Y-7.95
X16.15Y-8.0
X16.15Y-8.195
X16.15Y-8.305
X16.15Y-8.4
X16.15Y-8.5
X16.15Y-8.6
X16.15Y-8.7
X16.15Y-8.795
X16.15Y-8.895
X16.16Y-5.84
X16.16Y-5.95
X16.25Y-5.9
X16.25Y-6.0
X16.25Y-6.1
X16.25Y-6.2
X16.25Y-6.4
X16.25Y-6.6
X16.25Y-6.8
X16.25Y-7.0
X16.25Y-7.1
X16.25Y-7.2
X16.25Y-7.4
X16.25Y-7.5
X16.25Y-7.605
X16.25Y-7.7
X16.25Y-7.9
X16.25Y-8.0
X16.25Y-8.2
X16.25Y-8.32
X16.25Y-8.4
X16.25Y-8.495
X16.25Y-8.6
X16.25Y-8.7
X16.25Y-8.795
X16.255Y-8.265
X16.3Y-7.755
X16.35Y-8.275
X16.35Y-8.475
X16.35Y-8.575
X16.545Y-5.91
X16.545Y-5.995
X16.545Y-6.1
X16.545Y-6.2
X16.545Y-6.305
X16.545Y-6.395
X16.545Y-6.505
X16.545Y-6.595
X16.545Y-6.8
X16.545Y-7.005
X16.545Y-7.095
X16.545Y-7.2
X16.545Y-7.405
X16.545Y-7.5
X16.545Y-7.6
X16.545Y-7.7
X16.545Y-7.8
X16.545Y-7.905
X16.545Y-7.975
X16.545Y-8.02
X16.545Y-8.095
X16.545Y-8.2
X16.545Y-8.295
X16.545Y-8.4
X16.545Y-8.48
X16.545Y-8.61
X16.545Y-8.675
X16.545Y-8.9
X17.24Y-7.95
X17.257Y-7.647
X17.35Y-7.9
X17.35Y-8.0
X17.35Y-8.875
X17.36Y-6.15
X17.37Y-5.84
X17.37Y-5.95
X17.45Y-5.905
X17.45Y-6.0
X17.45Y-6.2
X17.45Y-7.905
X17.8978Y-11.2
T2
X3.18Y-8.18
X3.18Y-8.33
X3.28Y-8.58
X3.35Y-9.66
X3.35Y-11.19
X3.44Y-6.92
X3.44Y-7.22
X3.44Y-7.48
X3.5077Y-5.6
X3.94Y-9.4
X4.07Y-5.18
X4.19Y-5.89
X4.5Y-9.61
X4.66Y-7.6817
X5.3Y-4.26
X5.3Y-4.34
X5.42Y-5.92
X5.45Y-8.584
X5.47Y-7.09
X5.62Y-5.7
X5.62Y-5.78
X5.62Y-6.0
X5.62Y-6.08
X5.71Y-6.99
X5.78Y-6.79
X5.78Y-7.09
X5.83Y-4.9864
X5.83Y-6.213
X5.8528Y-5.8655
X5.94Y-6.39
X5.96Y-5.44
X5.96Y-5.65
X5.96Y-6.31
X6.04Y-5.65
X6.04Y-5.7
X6.04Y-5.84
X6.04Y-6.0
X6.0465Y-6.1548
X6.0893Y-6.1556
X6.12Y-6.14
X6.13Y-10.28
X6.14Y-5.65
X6.18Y-6.39
X6.2073Y-6.15
X6.21Y-5.84
X6.21Y-6.12
X6.22Y-5.65
X6.28Y-5.41
X6.31Y-5.68
X6.31Y-7.04
X6.31Y-7.17
X6.3114Y-6.6929
X6.34Y-5.98
X6.36Y-7.98
X6.37Y-7.04
X6.58Y-5.84
X6.58Y-5.92
X6.58Y-6.14
X6.58Y-6.23
X6.65Y-10.28
X7.25Y-5.88
X7.25Y-7.08
X7.25Y-8.28
X7.35Y-10.11
X7.95Y-5.88
X7.95Y-7.08
X7.95Y-8.68
X7.95Y-10.11
X8.55Y-5.88
X8.55Y-7.08
X8.55Y-8.69
X9.32Y-6.3506
X9.32Y-7.71
X9.38Y-6.44
X9.38Y-7.81
X9.51Y-6.14
X9.51Y-7.51
X9.9Y-6.04
X9.9Y-7.41
X9.91Y-6.39
X9.91Y-6.52
X9.91Y-7.76
X9.91Y-7.89
X9.97Y-6.39
X9.97Y-7.76
X10.05Y-4.58
X10.17Y-4.46
X10.18Y-5.15
X10.1919Y-4.8371
X10.31Y-4.7663
X10.36Y-10.68
X10.36Y-10.84
X10.41Y-4.92
X10.427Y-5.215
X10.48Y-10.24
X10.48Y-10.36
X10.52Y-5.47
X10.53Y-4.711
X10.54Y-4.47
X10.55Y-4.56
X10.56Y-4.44
X10.62Y-5.06
X10.6237Y-5.1963
X10.63Y-4.71
X10.63Y-4.82
X10.664Y-5.216
X10.703Y-4.71
X10.74Y-5.46
X10.762Y-5.22
X10.79Y-4.71
X10.79Y-4.8122
X10.79Y-5.2
X10.91Y-5.04
X10.92Y-10.3
X10.92Y-10.36
X11.0329Y-4.7586
X11.05Y-4.47
X11.07Y-10.3
X11.07Y-10.75
X11.14Y-5.2
X11.14Y-5.28
X11.15Y-4.6
X11.15Y-4.91
X11.15Y-4.99
X11.17Y-4.47
X11.41Y-10.48
X11.41Y-10.64
X11.5Y-4.04
X11.5Y-4.22
X11.55Y-3.78
X11.66Y-7.1954
X11.66Y-8.2954
X11.66Y-9.4
X11.66Y-10.5
X11.7004Y-9.4904
X11.73Y-7.28
X11.73Y-7.33
X11.73Y-10.59
X11.73Y-10.64
X11.74Y-8.38
X11.74Y-8.43
X11.75Y-3.78
X11.87Y-4.2
X12.1686Y-7.0371
X12.29Y-7.25
X12.29Y-7.36
X12.29Y-8.35
X12.29Y-8.46
X12.29Y-9.45
X12.29Y-9.56
X12.29Y-10.55
X12.29Y-10.67
X12.3Y-10.37
X12.31Y-8.17
X12.3129Y-9.2736
X12.34Y-4.78
X12.36Y-7.2254
X12.36Y-8.3254
X12.36Y-9.4254
X12.36Y-10.54
X12.44Y-8.2954
X12.44Y-9.3954
X12.44Y-10.51
X12.4536Y-7.1954
X12.51Y-7.28
X12.51Y-7.33
X12.51Y-8.38
X12.51Y-10.59
X12.51Y-10.64
X12.5128Y-8.4245
X12.5185Y-9.5206
X12.5237Y-9.48
X12.56Y-4.69
X12.56Y-4.89
X12.56Y-4.98
X12.56Y-5.1
X12.56Y-5.18
X12.56Y-5.28
X12.56Y-5.4
X13.07Y-7.06
X13.07Y-7.25
X13.07Y-7.36
X13.07Y-8.16
X13.07Y-8.35
X13.07Y-8.46
X13.07Y-9.26
X13.07Y-9.45
X13.07Y-9.56
X13.07Y-10.37
X13.07Y-10.56
X13.07Y-10.67
X13.1318Y-7.231
X13.14Y-8.3254
X13.14Y-9.4254
X13.14Y-10.54
X13.19Y-4.77
X13.68Y-5.85
X13.7Y-4.63
X13.7Y-7.23
X13.7Y-8.43
X13.8Y-9.9329
X14.01Y-5.82
X14.01Y-8.08
X14.04Y-9.74
X14.04Y-9.97
X14.1941Y-10.78
X14.33Y-10.48
X14.33Y-11.05
X14.39Y-8.43
X14.4Y-4.63
X14.4Y-6.75
X14.56Y-9.77
X15.05Y-9.06
X16.25Y-9.06
X17.5047Y-9.0674
X17.6878Y-11.21
X17.74Y-5.77
X17.74Y-5.92
X17.74Y-6.12
X17.74Y-7.02
X17.74Y-7.72
X17.74Y-7.87
X17.7413Y-6.7213
X17.9478Y-11.13
X17.95Y-11.05
T3
X3.2Y-7.11
X3.2Y-7.2084
X3.35Y-9.4
X3.47Y-6.0
X3.47Y-6.1
X3.47Y-6.2
X3.47Y-6.3
X3.47Y-6.4
X3.47Y-6.5
X3.47Y-6.6
X3.47Y-6.7
X3.47Y-6.8
X3.6Y-6.1
X3.6Y-6.2
X3.6Y-6.3
X3.6Y-6.4
X3.6Y-6.5
X3.6Y-6.6
X3.6Y-6.7
X3.6Y-6.8
X3.6Y-6.9
X3.6Y-7.0
X3.6Y-7.1
X3.6Y-7.2
X3.6Y-7.3
X3.6Y-7.4
X3.6Y-7.5
X3.6Y-7.6
X3.6Y-7.7
X3.6Y-7.8
X3.6Y-7.9
X3.6Y-8.0
X3.6Y-8.1
X3.6Y-8.2
X3.6Y-8.3
X3.6Y-8.4
X3.6Y-8.5
X3.6Y-8.6
X3.6Y-8.7
X3.6Y-8.8
X3.6Y-8.9
X3.6Y-9.0
X3.6Y-9.1
X3.6Y-9.2
X3.65Y-9.4
X3.8416Y-9.7
X3.94Y-9.7
X4.14Y-9.7
X4.24Y-9.7
X4.3Y-4.8
X4.3Y-5.1
X4.34Y-9.7
X4.4Y-9.4
X4.43Y-5.5
X4.43Y-5.8
X4.5Y-6.1
X4.5Y-6.2
X4.5Y-6.3
X4.5Y-6.4
X4.5Y-6.5
X4.5Y-6.6
X4.5Y-6.7
X4.5Y-6.8
X4.5Y-6.9
X4.5Y-7.0
X4.5Y-7.1
X4.5Y-7.2
X4.5Y-7.3
X4.5Y-7.4
X4.5Y-7.5
X4.5Y-7.6
X4.5Y-7.7
X4.5Y-7.8
X4.5Y-7.9
X4.5Y-8.0
X4.5Y-8.1
X4.5Y-8.2
X4.5Y-8.3
X4.5Y-8.4
X4.5Y-8.5
X4.5Y-8.6
X4.5Y-8.7
X4.5Y-8.8
X4.5Y-8.9
X4.5Y-9.0
X4.5Y-9.1
X4.5Y-9.2
X4.6Y-4.8
X4.6Y-5.1
X4.63Y-6.0
X4.63Y-6.1
X4.63Y-6.2
X4.63Y-6.3
X4.63Y-6.4
X4.63Y-6.5
X4.63Y-6.6
X4.63Y-6.7
X4.63Y-6.8
X4.7Y-9.4
X4.7Y-10.2
X4.7Y-10.3
X4.7Y-10.4
X4.7Y-10.5
X4.7Y-10.6
X4.7Y-10.7
X4.7Y-10.8
X4.7Y-10.9
X4.73Y-5.5
X4.73Y-5.8
X4.9Y-4.6
X4.9Y-4.7
X4.9Y-4.8
X4.9Y-4.9
X4.9Y-5.0
X4.9Y-5.1
X5.0Y-4.5
X5.0Y-4.6
X5.0Y-4.7
X5.0Y-4.8
X5.0Y-4.9
X5.0Y-5.0
X5.0Y-5.1
X5.0Y-5.2
X5.0Y-5.8
X5.0Y-5.9
X5.0Y-6.0
X5.0Y-6.1
X5.0Y-6.2
X5.0Y-6.3
X5.0Y-6.4
X5.0Y-6.5
X5.0Y-6.6
X5.0Y-6.7
X5.0Y-7.0
X5.0Y-7.1
X5.0Y-7.2
X5.0Y-7.3
X5.0Y-7.4
X5.0Y-7.5
X5.0Y-7.6
X5.0Y-7.7
X5.0Y-7.8
X5.0Y-7.9
X5.0Y-8.5
X5.0Y-8.6
X5.0Y-8.7
X5.0Y-8.8
X5.0Y-8.9
X5.0Y-9.0
X5.0Y-9.1
X5.0Y-9.2
X5.0Y-9.3
X5.0Y-9.4
X5.0Y-9.5
X5.0Y-9.6
X5.0Y-10.2
X5.0Y-10.3
X5.0Y-10.4
X5.0Y-10.5
X5.0Y-10.6
X5.0Y-10.7
X5.0Y-10.8
X5.0Y-10.9
X5.1Y-4.5
X5.1Y-4.6
X5.1Y-5.1
X5.1Y-5.2
X5.2Y-4.5
X5.2Y-4.6
X5.2Y-5.1
X5.2Y-5.2
X5.2Y-10.2
X5.2Y-10.3
X5.2Y-10.4
X5.2Y-10.5
X5.2Y-10.6
X5.2Y-10.7
X5.2Y-10.8
X5.2Y-10.9
X5.3Y-4.5
X5.3Y-4.6
X5.3Y-5.1
X5.3Y-5.2
X5.3Y-5.8
X5.3Y-5.9
X5.3Y-6.0
X5.3Y-6.1
X5.3Y-6.2
X5.3Y-6.3
X5.3Y-6.4
X5.3Y-6.5
X5.3Y-6.6
X5.3Y-6.7
X5.3Y-7.0
X5.3Y-7.1
X5.3Y-7.2
X5.3Y-7.3
X5.3Y-7.4
X5.3Y-7.5
X5.3Y-7.6
X5.3Y-7.7
X5.3Y-7.8
X5.3Y-7.9
X5.3Y-8.5
X5.3Y-8.6
X5.3Y-8.7
X5.3Y-8.8
X5.3Y-8.9
X5.3Y-9.0
X5.3Y-9.1
X5.3Y-9.2
X5.3Y-9.3
X5.3Y-9.4
X5.3Y-9.5
X5.3Y-9.6
X5.4Y-4.5
X5.4Y-4.6
X5.4Y-5.1
X5.4Y-5.2
X5.5Y-4.5
X5.5Y-4.6
X5.5Y-4.7
X5.5Y-4.8
X5.5Y-4.9
X5.5Y-5.0
X5.5Y-5.1
X5.5Y-5.2
X5.5Y-10.2
X5.5Y-10.3
X5.5Y-10.4
X5.5Y-10.5
X5.5Y-10.6
X5.5Y-10.7
X5.5Y-10.8
X5.5Y-10.9
X5.6Y-4.6
X5.6Y-4.7
X5.6Y-4.8
X5.6Y-4.9
X5.6Y-5.0
X5.6Y-5.1
X5.61Y-5.44
X5.61Y-5.5384
X5.68Y-10.2
X5.68Y-10.3
X5.68Y-10.4
X5.68Y-10.5
X5.68Y-10.6
X5.68Y-10.7
X5.68Y-10.8
X5.68Y-10.9
X5.68Y-11.0
X5.68Y-11.1
X5.7Y-7.85
X5.7Y-8.15
X5.7Y-8.3
X5.7Y-8.6
X5.9Y-7.9
X5.9Y-8.0
X5.9Y-8.1
X5.9Y-8.2
X5.9Y-8.3
X5.9Y-8.4
X5.9Y-8.5
X5.98Y-10.2
X5.98Y-10.3
X5.98Y-10.4
X5.98Y-10.5
X5.98Y-10.6
X5.98Y-10.7
X5.98Y-10.8
X5.98Y-10.9
X5.98Y-11.0
X5.98Y-11.1
X6.2Y-7.9
X6.2Y-8.0
X6.2Y-8.1
X6.2Y-8.2
X6.2Y-8.3
X6.2Y-8.4
X6.2Y-8.5
X6.2Y-10.2
X6.2Y-10.3
X6.2Y-10.4
X6.2Y-10.5
X6.2Y-10.6
X6.2Y-10.7
X6.2Y-10.8
X6.2Y-10.9
X6.2Y-11.0
X6.2Y-11.1
X6.5Y-10.2
X6.5Y-10.3
X6.5Y-10.4
X6.5Y-10.5
X6.5Y-10.6
X6.5Y-10.7
X6.5Y-10.8
X6.5Y-10.9
X6.5Y-11.0
X6.5Y-11.1
X6.56Y-4.91
X6.66Y-4.91
X6.76Y-4.91
X6.8Y-5.8
X6.8Y-5.9
X6.8Y-6.0
X6.8Y-6.1
X6.8Y-6.2
X6.8Y-6.3
X6.8Y-6.4
X6.8Y-6.5
X6.8Y-6.6
X6.8Y-6.7
X6.8Y-7.0
X6.8Y-7.1
X6.8Y-7.2
X6.8Y-7.3
X6.8Y-7.4
X6.8Y-7.5
X6.8Y-7.6
X6.8Y-7.7
X6.8Y-7.8
X6.8Y-7.9
X6.8Y-8.2
X6.8Y-8.3
X6.8Y-8.4
X6.8Y-8.5
X6.8Y-8.6
X6.8Y-8.7
X6.8Y-8.8
X6.8Y-8.9
X6.8Y-9.0
X6.8Y-9.1
X6.86Y-4.91
X6.9Y-10.2
X6.9Y-10.3
X6.9Y-10.4
X6.9Y-10.5
X6.9Y-10.6
X6.9Y-10.7
X6.9Y-10.8
X6.9Y-10.9
X6.9Y-11.0
X6.9Y-11.1
X6.96Y-4.91
X7.06Y-4.91
X7.1Y-5.8
X7.1Y-5.9
X7.1Y-6.0
X7.1Y-6.1
X7.1Y-6.2
X7.1Y-6.3
X7.1Y-6.4
X7.1Y-6.5
X7.1Y-6.6
X7.1Y-6.7
X7.1Y-7.0
X7.1Y-7.1
X7.1Y-7.2
X7.1Y-7.3
X7.1Y-7.4
X7.1Y-7.5
X7.1Y-7.6
X7.1Y-7.7
X7.1Y-7.8
X7.1Y-7.9
X7.1Y-8.2
X7.1Y-8.3
X7.1Y-8.4
X7.1Y-8.5
X7.1Y-8.6
X7.1Y-8.7
X7.1Y-8.8
X7.1Y-8.9
X7.1Y-9.0
X7.1Y-9.1
X7.16Y-4.91
X7.2Y-10.2
X7.2Y-10.3
X7.2Y-10.4
X7.2Y-10.5
X7.2Y-10.6
X7.2Y-10.7
X7.2Y-10.8
X7.2Y-10.9
X7.2Y-11.0
X7.2Y-11.1
X7.26Y-4.91
X7.36Y-4.91
X7.4Y-10.3
X7.4Y-10.4
X7.4Y-10.5
X7.4Y-10.6
X7.4Y-10.7
X7.4Y-10.8
X7.4Y-10.9
X7.4Y-11.0
X7.4Y-11.1
X7.5Y-5.8
X7.5Y-5.9
X7.5Y-6.0
X7.5Y-6.1
X7.5Y-6.2
X7.5Y-6.3
X7.5Y-6.4
X7.5Y-6.5
X7.5Y-6.6
X7.5Y-6.7
X7.5Y-7.0
X7.5Y-7.1
X7.5Y-7.2
X7.5Y-7.3
X7.5Y-7.4
X7.5Y-7.5
X7.5Y-7.6
X7.5Y-7.7
X7.5Y-7.8
X7.5Y-7.9
X7.5Y-8.6
X7.5Y-8.7
X7.5Y-8.8
X7.5Y-8.9
X7.5Y-9.0
X7.5Y-9.1
X7.5Y-9.2
X7.5Y-9.3
X7.5Y-9.4
X7.5Y-9.5
X7.6Y-10.2
X7.6Y-10.3
X7.6Y-10.4
X7.6Y-10.5
X7.6Y-10.6
X7.6Y-10.7
X7.6Y-10.8
X7.6Y-10.9
X7.6Y-11.0
X7.6Y-11.1
X7.8Y-5.8
X7.8Y-5.9
X7.8Y-6.0
X7.8Y-6.1
X7.8Y-6.2
X7.8Y-6.3
X7.8Y-6.4
X7.8Y-6.5
X7.8Y-6.6
X7.8Y-6.7
X7.8Y-7.0
X7.8Y-7.1
X7.8Y-7.2
X7.8Y-7.3
X7.8Y-7.4
X7.8Y-7.5
X7.8Y-7.6
X7.8Y-7.7
X7.8Y-7.8
X7.8Y-7.9
X7.8Y-8.6
X7.8Y-8.7
X7.8Y-8.8
X7.8Y-8.9
X7.8Y-9.0
X7.8Y-9.1
X7.8Y-9.2
X7.8Y-9.3
X7.8Y-9.4
X7.8Y-9.5
X7.9Y-10.2
X7.9Y-10.3
X7.9Y-10.4
X7.9Y-10.5
X7.9Y-10.6
X7.9Y-10.7
X7.9Y-10.8
X7.9Y-10.9
X7.9Y-11.0
X7.9Y-11.1
X7.93Y-4.01
X7.93Y-4.1084
X8.1Y-4.5
X8.1Y-4.6
X8.1Y-4.7
X8.1Y-4.8
X8.1Y-4.9
X8.1Y-5.0
X8.1Y-5.1
X8.1Y-5.2
X8.1Y-5.3
X8.1Y-5.4
X8.1Y-5.8
X8.1Y-5.9
X8.1Y-6.0
X8.1Y-6.1
X8.1Y-6.2
X8.1Y-6.3
X8.1Y-6.4
X8.1Y-6.5
X8.1Y-6.6
X8.1Y-6.7
X8.1Y-7.0
X8.1Y-7.1
X8.1Y-7.2
X8.1Y-7.3
X8.1Y-7.4
X8.1Y-7.5
X8.1Y-7.6
X8.1Y-7.7
X8.1Y-7.8
X8.1Y-7.9
X8.1Y-8.6
X8.1Y-8.7
X8.1Y-8.8
X8.1Y-8.9
X8.1Y-9.0
X8.1Y-9.1
X8.1Y-9.2
X8.1Y-9.3
X8.1Y-9.4
X8.1Y-9.5
X8.1Y-10.3
X8.1Y-10.4
X8.1Y-10.5
X8.1Y-10.6
X8.1Y-10.7
X8.1Y-10.8
X8.1Y-10.9
X8.1Y-11.0
X8.1Y-11.1
X8.4Y-3.67
X8.4Y-3.8
X8.4Y-4.5
X8.4Y-4.6
X8.4Y-4.7
X8.4Y-4.8
X8.4Y-4.9
X8.4Y-5.0
X8.4Y-5.1
X8.4Y-5.2
X8.4Y-5.3
X8.4Y-5.4
X8.4Y-5.8
X8.4Y-5.9
X8.4Y-6.0
X8.4Y-6.1
X8.4Y-6.2
X8.4Y-6.3
X8.4Y-6.4
X8.4Y-6.5
X8.4Y-6.6
X8.4Y-6.7
X8.4Y-7.0
X8.4Y-7.1
X8.4Y-7.2
X8.4Y-7.3
X8.4Y-7.4
X8.4Y-7.5
X8.4Y-7.6
X8.4Y-7.7
X8.4Y-7.8
X8.4Y-7.9
X8.4Y-8.6
X8.4Y-8.7
X8.4Y-8.8
X8.4Y-8.9
X8.4Y-9.0
X8.4Y-9.1
X8.4Y-9.2
X8.4Y-9.3
X8.4Y-9.4
X8.4Y-9.5
X8.4Y-10.2
X8.4Y-10.5
X8.5Y-3.67
X8.5Y-3.8
X8.5Y-10.2
X8.5Y-10.5
X8.6Y-3.67
X8.6Y-3.8
X8.6Y-4.5
X8.6Y-4.6
X8.6Y-4.7
X8.6Y-4.8
X8.6Y-4.9
X8.6Y-5.0
X8.6Y-5.1
X8.6Y-5.2
X8.6Y-5.3
X8.6Y-5.4
X8.6Y-10.2
X8.6Y-10.5
X8.7Y-3.67
X8.7Y-3.8
X8.7Y-10.2
X8.7Y-10.5
X8.8Y-3.67
X8.8Y-3.8
X8.8Y-5.8
X8.8Y-5.9
X8.8Y-6.0
X8.8Y-6.1
X8.8Y-6.2
X8.8Y-6.3
X8.8Y-6.4
X8.8Y-6.5
X8.8Y-6.8
X8.8Y-6.9
X8.8Y-7.0
X8.8Y-7.1
X8.8Y-7.2
X8.8Y-7.3
X8.8Y-7.4
X8.8Y-7.5
X8.8Y-7.8
X8.8Y-7.9
X8.8Y-8.0
X8.8Y-8.1
X8.8Y-8.2
X8.8Y-8.3
X8.8Y-8.4
X8.8Y-8.5
X8.8Y-8.8
X8.8Y-8.9
X8.8Y-9.0
X8.8Y-9.1
X8.8Y-9.2
X8.8Y-9.3
X8.8Y-9.4
X8.8Y-9.5
X8.8Y-10.2
X8.8Y-10.5
X8.9Y-3.67
X8.9Y-3.8
X8.9Y-4.5
X8.9Y-4.6
X8.9Y-4.7
X8.9Y-4.8
X8.9Y-4.9
X8.9Y-5.0
X8.9Y-5.1
X8.9Y-5.2
X8.9Y-5.3
X8.9Y-5.4
X8.9Y-10.2
X8.9Y-10.5
X9.0Y-3.67
X9.0Y-3.8
X9.0Y-10.2
X9.0Y-10.5
X9.1Y-3.67
X9.1Y-3.8
X9.1Y-4.5
X9.1Y-4.6
X9.1Y-4.7
X9.1Y-4.8
X9.1Y-4.9
X9.1Y-5.0
X9.1Y-5.1
X9.1Y-5.2
X9.1Y-5.3
X9.1Y-5.4
X9.1Y-5.8
X9.1Y-5.9
X9.1Y-6.0
X9.1Y-6.1
X9.1Y-6.2
X9.1Y-6.3
X9.1Y-6.4
X9.1Y-6.5
X9.1Y-6.8
X9.1Y-6.9
X9.1Y-7.0
X9.1Y-7.1
X9.1Y-7.2
X9.1Y-7.3
X9.1Y-7.4
X9.1Y-7.5
X9.1Y-7.8
X9.1Y-7.9
X9.1Y-8.0
X9.1Y-8.1
X9.1Y-8.2
X9.1Y-8.3
X9.1Y-8.4
X9.1Y-8.5
X9.1Y-8.8
X9.1Y-8.9
X9.1Y-9.0
X9.1Y-9.1
X9.1Y-9.2
X9.1Y-9.3
X9.1Y-9.4
X9.1Y-9.5
X9.1Y-10.2
X9.1Y-10.5
X9.2Y-3.67
X9.2Y-3.8
X9.4Y-4.5
X9.4Y-4.6
X9.4Y-4.7
X9.4Y-4.8
X9.4Y-4.9
X9.4Y-5.0
X9.4Y-5.1
X9.4Y-5.2
X9.4Y-5.3
X9.4Y-5.4
X9.4Y-8.8
X9.4Y-8.9
X9.4Y-9.0
X9.4Y-9.1
X9.4Y-9.2
X9.4Y-9.3
X9.4Y-9.4
X9.4Y-9.5
X9.4Y-10.2
X9.4Y-10.5
X9.5Y-3.8
X9.5Y-10.2
X9.5Y-10.5
X9.6Y-3.8
X9.6Y-4.5
X9.6Y-4.6
X9.6Y-4.7
X9.6Y-4.8
X9.6Y-4.9
X9.6Y-5.0
X9.6Y-5.1
X9.6Y-5.2
X9.6Y-5.3
X9.6Y-5.4
X9.6Y-10.2
X9.6Y-10.5
X9.7Y-3.8
X9.7Y-8.8
X9.7Y-8.9
X9.7Y-9.0
X9.7Y-9.1
X9.7Y-9.2
X9.7Y-9.3
X9.7Y-9.4
X9.7Y-9.5
X9.7Y-10.2
X9.7Y-10.5
X9.8Y-3.8
X9.8Y-10.2
X9.8Y-10.5
X9.9Y-3.8
X9.9Y-4.5
X9.9Y-4.6
X9.9Y-4.7
X9.9Y-4.8
X9.9Y-4.9
X9.9Y-5.0
X9.9Y-5.1
X9.9Y-5.2
X9.9Y-5.3
X9.9Y-5.4
X9.9Y-10.2
X9.9Y-10.5
X10.0Y-3.8
X10.0Y-10.2
X10.0Y-10.5
X10.1Y-3.8
X10.1Y-10.2
X10.1Y-10.5
X10.19Y-5.8
X10.19Y-5.9
X10.19Y-6.0
X10.19Y-6.1
X10.19Y-6.2
X10.19Y-6.3
X10.19Y-6.4
X10.19Y-6.5
X10.19Y-6.8
X10.19Y-6.9
X10.19Y-7.0
X10.19Y-7.1
X10.19Y-7.2
X10.19Y-7.3
X10.19Y-7.4
X10.19Y-7.5
X10.19Y-7.8
X10.19Y-7.9
X10.19Y-8.0
X10.19Y-8.1
X10.19Y-8.2
X10.19Y-8.3
X10.19Y-8.4
X10.19Y-8.5
X10.19Y-8.8
X10.19Y-8.9
X10.19Y-9.0
X10.19Y-9.1
X10.19Y-9.2
X10.19Y-9.3
X10.19Y-9.4
X10.19Y-9.5
X10.2Y-3.8
X10.3Y-3.8
X10.49Y-5.8
X10.49Y-5.9
X10.49Y-6.0
X10.49Y-6.1
X10.49Y-6.2
X10.49Y-6.3
X10.49Y-6.4
X10.49Y-6.5
X10.49Y-6.8
X10.49Y-6.9
X10.49Y-7.0
X10.49Y-7.1
X10.49Y-7.2
X10.49Y-7.3
X10.49Y-7.4
X10.49Y-7.5
X10.49Y-7.8
X10.49Y-7.9
X10.49Y-8.0
X10.49Y-8.1
X10.49Y-8.2
X10.49Y-8.3
X10.49Y-8.4
X10.49Y-8.5
X10.49Y-8.8
X10.49Y-8.9
X10.49Y-9.0
X10.49Y-9.1
X10.49Y-9.2
X10.49Y-9.3
X10.49Y-9.4
X10.49Y-9.5
X10.6Y-10.2
X10.6Y-10.3
X10.6Y-10.4
X10.6Y-10.5
X10.6Y-10.6
X10.6Y-10.7
X10.7Y-10.1
X10.7Y-10.2
X10.7Y-10.3
X10.7Y-10.4
X10.7Y-10.5
X10.7Y-10.6
X10.7Y-10.7
X10.7Y-10.8
X10.8Y-10.1
X10.8Y-10.2
X10.8Y-10.7
X10.8Y-10.8
X10.89Y-5.8
X10.89Y-5.9
X10.89Y-6.0
X10.89Y-6.1
X10.89Y-6.2
X10.89Y-6.3
X10.89Y-6.4
X10.89Y-6.5
X10.89Y-6.6
X10.89Y-6.7
X10.89Y-7.0
X10.89Y-7.1
X10.89Y-7.2
X10.89Y-7.3
X10.89Y-7.4
X10.89Y-7.5
X10.89Y-7.6
X10.89Y-7.7
X10.89Y-7.8
X10.89Y-7.9
X10.9Y-10.1
X10.9Y-10.2
X10.9Y-10.7
X10.9Y-10.8
X11.0Y-10.1
X11.0Y-10.2
X11.0Y-10.7
X11.0Y-10.8
X11.1Y-10.1
X11.1Y-10.2
X11.1Y-10.7
X11.1Y-10.8
X11.19Y-5.8
X11.19Y-5.9
X11.19Y-6.0
X11.19Y-6.1
X11.19Y-6.2
X11.19Y-6.3
X11.19Y-6.4
X11.19Y-6.5
X11.19Y-6.6
X11.19Y-6.7
X11.19Y-7.0
X11.19Y-7.1
X11.19Y-7.2
X11.19Y-7.3
X11.19Y-7.4
X11.19Y-7.5
X11.19Y-7.6
X11.19Y-7.7
X11.19Y-7.8
X11.19Y-7.9
X11.2Y-4.15
X11.2Y-4.2484
X11.2Y-10.1
X11.2Y-10.2
X11.2Y-10.3
X11.2Y-10.4
X11.2Y-10.5
X11.2Y-10.6
X11.2Y-10.7
X11.2Y-10.8
X11.3Y-4.7
X11.3Y-4.8
X11.3Y-4.9
X11.3Y-5.0
X11.3Y-5.1
X11.3Y-5.2
X11.3Y-5.3
X11.3Y-5.4
X11.3Y-5.5
X11.3Y-10.2
X11.3Y-10.3
X11.3Y-10.4
X11.3Y-10.5
X11.3Y-10.6
X11.3Y-10.7
X11.4216Y-6.9
X11.4216Y-7.7
X11.4234Y-8.5
X11.4234Y-9.76
X11.52Y-6.9
X11.52Y-7.7
X11.5219Y-8.5
X11.5219Y-9.76
X11.59Y-4.7
X11.59Y-4.8
X11.59Y-4.9
X11.59Y-5.0
X11.59Y-5.1
X11.59Y-5.2
X11.59Y-5.3
X11.59Y-5.4
X11.59Y-5.5
X11.59Y-5.6
X11.59Y-5.7
X11.59Y-5.8
X11.59Y-5.9
X11.59Y-6.0
X11.59Y-6.1
X11.59Y-6.2
X12.19Y-4.7
X12.19Y-4.8
X12.19Y-4.9
X12.19Y-5.0
X12.19Y-5.1
X12.19Y-5.2
X12.19Y-5.3
X12.19Y-5.4
X12.19Y-5.5
X12.19Y-5.6
X12.19Y-5.7
X12.19Y-5.8
X12.19Y-5.9
X12.19Y-6.0
X12.19Y-6.1
X12.19Y-6.2
X12.44Y-4.7
X12.44Y-4.8
X12.44Y-4.9
X12.44Y-5.0
X12.44Y-5.1
X12.44Y-5.2
X12.44Y-5.3
X12.44Y-5.4
X12.44Y-5.5
X12.44Y-5.6
X12.44Y-5.7
X12.44Y-5.8
X12.44Y-5.9
X12.44Y-6.0
X12.44Y-6.1
X12.44Y-6.2
X13.04Y-4.7
X13.04Y-4.8
X13.04Y-4.9
X13.04Y-5.0
X13.04Y-5.1
X13.04Y-5.2
X13.04Y-5.3
X13.04Y-5.4
X13.04Y-5.5
X13.04Y-5.6
X13.04Y-5.7
X13.04Y-5.8
X13.04Y-5.9
X13.04Y-6.0
X13.04Y-6.1
X13.04Y-6.2
X13.28Y-5.7192
X13.28Y-5.8192
X13.28Y-5.9192
X13.28Y-6.0192
X13.28Y-6.1192
X13.28Y-6.2192
X13.28Y-6.3192
X13.28Y-6.4192
X13.28Y-6.5192
X13.28Y-6.6192
X13.28Y-6.7192
X13.28Y-6.8192
X13.3Y-4.5
X13.3Y-4.6
X13.3Y-4.7
X13.3Y-4.8
X13.3Y-4.9
X13.3Y-5.0
X13.3Y-5.1
X13.3Y-5.2
X13.3Y-5.3
X13.3Y-5.4
X13.3Y-7.1
X13.3Y-7.2
X13.3Y-7.3
X13.3Y-7.4
X13.3Y-7.5
X13.3Y-7.6
X13.3Y-7.7
X13.3Y-7.8
X13.3Y-7.9
X13.3Y-8.0
X13.3Y-8.3
X13.3Y-8.4
X13.3Y-8.5
X13.3Y-8.6
X13.3Y-8.7
X13.3Y-8.8
X13.3Y-8.9
X13.3Y-9.0
X13.3Y-9.1
X13.3Y-9.2
X13.3616Y-9.83
X13.46Y-9.83
X13.58Y-5.7192
X13.58Y-5.8192
X13.58Y-5.9192
X13.58Y-6.0192
X13.58Y-6.1192
X13.58Y-6.2192
X13.58Y-6.3192
X13.58Y-6.4192
X13.58Y-6.5192
X13.58Y-6.6192
X13.58Y-6.7192
X13.58Y-6.8192
X13.6Y-4.5
X13.6Y-4.6
X13.6Y-4.7
X13.6Y-4.8
X13.6Y-4.9
X13.6Y-5.0
X13.6Y-5.1
X13.6Y-5.2
X13.6Y-5.3
X13.6Y-5.4
X13.6Y-7.1
X13.6Y-7.2
X13.6Y-7.3
X13.6Y-7.4
X13.6Y-7.5
X13.6Y-7.6
X13.6Y-7.7
X13.6Y-7.8
X13.6Y-7.9
X13.6Y-8.0
X13.6Y-8.3
X13.6Y-8.4
X13.6Y-8.5
X13.6Y-8.6
X13.6Y-8.7
X13.6Y-8.8
X13.6Y-8.9
X13.6Y-9.0
X13.6Y-9.1
X13.6Y-9.2
X13.8Y-4.5
X13.8Y-4.6
X13.8Y-4.7
X13.8Y-4.8
X13.8Y-4.9
X13.8Y-5.0
X13.8Y-5.1
X13.8Y-5.2
X13.8Y-5.3
X13.8Y-5.4
X13.8Y-5.82
X13.8Y-5.92
X13.8Y-6.02
X13.8Y-6.12
X13.8Y-6.22
X13.8Y-6.32
X13.8Y-6.42
X13.8Y-6.52
X13.8Y-6.62
X13.8Y-6.72
X13.8Y-7.1
X13.8Y-7.2
X13.8Y-7.3
X13.8Y-7.4
X13.8Y-7.5
X13.8Y-7.6
X13.8Y-7.7
X13.8Y-7.8
X13.8Y-7.9
X13.8Y-8.0
X13.8Y-8.3
X13.8Y-8.4
X13.8Y-8.5
X13.8Y-8.6
X13.8Y-8.7
X13.8Y-8.8
X13.8Y-8.9
X13.8Y-9.0
X13.8Y-9.1
X13.8Y-9.2
X14.0Y-4.5008
X14.0Y-4.6008
X14.0Y-4.7008
X14.0Y-4.8008
X14.0Y-4.9008
X14.0Y-5.0008
X14.0Y-5.1008
X14.0Y-5.2008
X14.0Y-5.3008
X14.0Y-5.4008
X14.0Y-6.6192
X14.0Y-6.7192
X14.0Y-6.8192
X14.0Y-6.9192
X14.0Y-7.0192
X14.0Y-7.1192
X14.0Y-7.2192
X14.0Y-8.3
X14.0Y-8.4
X14.0Y-8.5
X14.0Y-8.6
X14.0Y-8.7
X14.0Y-8.8
X14.0Y-8.9
X14.0Y-9.0
X14.0Y-9.1
X14.0Y-9.2
X14.1034Y-5.74
X14.1034Y-7.95
X14.2019Y-5.74
X14.2019Y-7.95
X14.25Y-9.86
X14.3Y-4.5008
X14.3Y-4.6008
X14.3Y-4.7008
X14.3Y-4.8008
X14.3Y-4.9008
X14.3Y-5.0008
X14.3Y-5.1008
X14.3Y-5.2008
X14.3Y-5.3008
X14.3Y-5.4008
X14.3Y-6.6192
X14.3Y-6.7192
X14.3Y-6.8192
X14.3Y-6.9192
X14.3Y-7.0192
X14.3Y-7.1192
X14.3Y-7.2192
X14.3Y-8.3
X14.3Y-8.4
X14.3Y-8.5
X14.3Y-8.6
X14.3Y-8.7
X14.3Y-8.8
X14.3Y-8.9
X14.3Y-9.0
X14.3Y-9.1
X14.3Y-9.2
X14.35Y-9.86
X14.45Y-9.86
X14.5Y-4.5
X14.5Y-4.6
X14.5Y-4.7
X14.5Y-4.8
X14.5Y-4.9
X14.5Y-5.0
X14.5Y-5.1
X14.5Y-5.2
X14.5Y-5.3
X14.5Y-5.4
X14.5Y-6.7
X14.5Y-6.8
X14.5Y-6.9
X14.5Y-7.0
X14.5Y-7.1
X14.5Y-7.2
X14.5Y-7.3
X14.5Y-7.4
X14.5Y-7.5
X14.5Y-7.6
X14.5Y-8.3
X14.5Y-8.4
X14.5Y-8.5
X14.5Y-8.6
X14.5Y-8.7
X14.5Y-8.8
X14.5Y-8.9
X14.5Y-9.0
X14.5Y-9.1
X14.5Y-9.2
X16.04Y-10.7016
X16.04Y-10.8
X16.46Y-10.7016
X16.46Y-10.8
X16.88Y-10.7016
X16.88Y-10.8
X17.3Y-10.7016
X17.3Y-10.8
T4
X3.6441Y-4.9023
X3.6441Y-5.0023
X3.6441Y-5.1023
X3.6441Y-5.2023
X3.6441Y-5.3023
X3.7441Y-4.9023
X3.7441Y-5.0023
X3.7441Y-5.1023
X3.7441Y-5.2023
X3.7441Y-5.3023
X3.7527Y-10.4473
X3.7527Y-10.9473
X3.8527Y-10.4473
X3.8527Y-10.9473
X3.9527Y-10.4473
X3.9527Y-10.9473
X4.0527Y-10.4473
X4.0527Y-10.9473
X4.1527Y-10.4473
X4.1527Y-10.9473
X4.2527Y-10.4473
X4.2527Y-10.9473
X4.3527Y-10.4473
X4.3527Y-10.9473
X4.4527Y-10.4473
X4.4527Y-10.9473
X6.2Y-3.9
X6.3Y-3.9
X6.3Y-4.5
X6.3Y-4.6
X6.4Y-3.9
X6.4Y-4.5
X6.4Y-4.6
X6.5Y-3.9
X6.5Y-4.5
X6.5Y-4.6
X6.6Y-3.9
X6.6Y-4.5
X6.6Y-4.6
X6.7Y-3.9
X6.7Y-4.5
X6.7Y-4.6
X7.2Y-3.9
X7.3Y-3.9
X7.3Y-4.5
X7.3Y-4.6
X7.4Y-3.9
X7.4Y-4.5
X7.4Y-4.6
X7.5Y-3.9
X7.5Y-4.5
X7.5Y-4.6
X7.6Y-3.9
X7.6Y-4.5
X7.6Y-4.6
X7.7Y-3.9
X7.7Y-4.5
X7.7Y-4.6
X8.4Y-4.1
X8.4Y-4.2
X8.5Y-4.1
X8.5Y-4.2
X8.6Y-4.1
X8.6Y-4.2
X8.7Y-4.1
X8.7Y-4.2
X8.8Y-4.1
X8.8Y-4.2
X8.9Y-4.1
X8.9Y-4.2
X9.0Y-4.1
X9.0Y-4.2
X9.1Y-4.1
X9.1Y-4.2
X9.2Y-4.1
X9.2Y-4.2
X9.3Y-4.1
X9.3Y-4.2
X9.4Y-4.1
X9.4Y-4.2
X9.5Y-4.1
X9.5Y-4.2
X9.6Y-4.1
X9.6Y-4.2
X9.7Y-4.1
X9.7Y-4.2
X9.8Y-4.1
X9.8Y-4.2
X9.9Y-4.1
X9.9Y-4.2
X10.0Y-4.1
X10.0Y-4.2
X10.1Y-4.1
X10.1Y-4.2
X10.2Y-4.1
X10.2Y-4.2
X10.3Y-4.1
X10.3Y-4.2
X10.88Y-3.97
X10.88Y-4.07
X10.88Y-4.17
X10.88Y-4.27
X12.7Y-3.97
X12.7Y-4.07
X12.7Y-4.17
X12.7Y-4.27
X14.9Y-5.9
X14.9Y-6.0
X14.9Y-6.1
X14.9Y-6.2
X14.9Y-6.3
X14.9Y-6.4
X14.9Y-6.5
X14.9Y-6.6
X14.9Y-6.7
X14.9Y-6.8
X14.9Y-6.9
X14.9Y-7.0
X14.9Y-7.1
X14.9Y-7.2
X14.9Y-7.3
X14.9Y-7.4
X14.9Y-7.5
X14.9Y-7.6
X14.9Y-7.7
X14.9Y-7.8
X14.9Y-7.9
X14.9Y-8.0
X14.9Y-8.1
X14.9Y-8.2
X14.9Y-8.3
X14.9Y-8.4
X14.9Y-8.5
X14.9Y-8.6
X14.9Y-8.7
X14.9Y-8.8
X14.9Y-8.9
X14.9Y-9.0
X15.0Y-5.9
X15.0Y-6.0
X15.0Y-6.1
X15.0Y-6.2
X15.0Y-6.3
X15.0Y-6.4
X15.0Y-6.5
X15.0Y-6.6
X15.0Y-6.7
X15.0Y-6.8
X15.0Y-6.9
X15.0Y-7.0
X15.0Y-7.1
X15.0Y-7.2
X15.0Y-7.3
X15.0Y-7.4
X15.0Y-7.5
X15.0Y-7.6
X15.0Y-7.7
X15.0Y-7.8
X15.0Y-7.9
X15.0Y-8.0
X15.0Y-8.1
X15.0Y-8.2
X15.0Y-8.3
X15.0Y-8.4
X15.0Y-8.5
X15.0Y-8.6
X15.0Y-8.7
X15.0Y-8.8
X15.0Y-8.9
X15.0Y-9.0
X15.1Y-5.9
X15.1Y-6.0
X15.1Y-6.1
X15.1Y-6.2
X15.1Y-6.3
X15.1Y-6.4
X15.1Y-6.5
X15.1Y-6.6
X15.1Y-6.7
X15.1Y-6.8
X15.1Y-6.9
X15.1Y-7.0
X15.1Y-7.1
X15.1Y-7.2
X15.1Y-7.3
X15.1Y-7.4
X15.1Y-7.5
X15.1Y-7.6
X15.1Y-7.7
X15.1Y-7.8
X15.1Y-7.9
X15.1Y-8.0
X15.1Y-8.1
X15.1Y-8.2
X15.1Y-8.3
X15.1Y-8.4
X15.1Y-8.5
X15.1Y-8.6
X15.1Y-8.7
X15.1Y-8.8
X15.1Y-8.9
X15.1Y-9.0
X16.1Y-5.9
X16.1Y-6.0
X16.1Y-6.1
X16.1Y-6.2
X16.1Y-6.3
X16.1Y-6.4
X16.1Y-6.5
X16.1Y-6.6
X16.1Y-6.7
X16.1Y-6.8
X16.1Y-6.9
X16.1Y-7.0
X16.1Y-7.1
X16.1Y-7.2
X16.1Y-7.3
X16.1Y-7.4
X16.1Y-7.5
X16.1Y-7.6
X16.1Y-7.7
X16.1Y-7.8
X16.1Y-7.9
X16.1Y-8.0
X16.1Y-8.1
X16.1Y-8.2
X16.1Y-8.3
X16.1Y-8.4
X16.1Y-8.5
X16.1Y-8.6
X16.1Y-8.7
X16.1Y-8.8
X16.1Y-8.9
X16.1Y-9.0
X16.2Y-5.9
X16.2Y-6.0
X16.2Y-6.1
X16.2Y-6.2
X16.2Y-6.3
X16.2Y-6.4
X16.2Y-6.5
X16.2Y-6.6
X16.2Y-6.7
X16.2Y-6.8
X16.2Y-6.9
X16.2Y-7.0
X16.2Y-7.1
X16.2Y-7.2
X16.2Y-7.3
X16.2Y-7.4
X16.2Y-7.5
X16.2Y-7.6
X16.2Y-7.7
X16.2Y-7.8
X16.2Y-7.9
X16.2Y-8.0
X16.2Y-8.1
X16.2Y-8.2
X16.2Y-8.3
X16.2Y-8.4
X16.2Y-8.5
X16.2Y-8.6
X16.2Y-8.7
X16.2Y-8.8
X16.2Y-8.9
X16.2Y-9.0
X16.3Y-5.9
X16.3Y-6.0
X16.3Y-6.1
X16.3Y-6.2
X16.3Y-6.3
X16.3Y-6.4
X16.3Y-6.5
X16.3Y-6.6
X16.3Y-6.7
X16.3Y-6.8
X16.3Y-6.9
X16.3Y-7.0
X16.3Y-7.1
X16.3Y-7.2
X16.3Y-7.3
X16.3Y-7.4
X16.3Y-7.5
X16.3Y-7.6
X16.3Y-7.7
X16.3Y-7.8
X16.3Y-7.9
X16.3Y-8.0
X16.3Y-8.1
X16.3Y-8.2
X16.3Y-8.3
X16.3Y-8.4
X16.3Y-8.5
X16.3Y-8.6
X16.3Y-8.7
X16.3Y-8.8
X16.3Y-8.9
X16.3Y-9.0
X17.3Y-5.9
X17.3Y-6.0
X17.3Y-6.1
X17.3Y-6.2
X17.3Y-6.3
X17.3Y-6.4
X17.3Y-6.5
X17.3Y-6.6
X17.3Y-6.7
X17.3Y-6.8
X17.3Y-6.9
X17.3Y-7.0
X17.3Y-7.1
X17.3Y-7.2
X17.3Y-7.3
X17.3Y-7.4
X17.3Y-7.5
X17.3Y-7.6
X17.3Y-7.7
X17.3Y-7.8
X17.3Y-7.9
X17.3Y-8.0
X17.3Y-8.1
X17.3Y-8.2
X17.3Y-8.3
X17.3Y-8.4
X17.3Y-8.5
X17.3Y-8.6
X17.3Y-8.7
X17.3Y-8.8
X17.3Y-8.9
X17.3Y-9.0
X17.4Y-5.9
X17.4Y-6.0
X17.4Y-6.1
X17.4Y-6.2
X17.4Y-6.3
X17.4Y-6.4
X17.4Y-6.5
X17.4Y-6.6
X17.4Y-6.7
X17.4Y-6.8
X17.4Y-6.9
X17.4Y-7.0
X17.4Y-7.1
X17.4Y-7.2
X17.4Y-7.3
X17.4Y-7.4
X17.4Y-7.5
X17.4Y-7.6
X17.4Y-7.7
X17.4Y-7.8
X17.4Y-7.9
X17.4Y-8.0
X17.4Y-8.1
X17.4Y-8.2
X17.4Y-8.3
X17.4Y-8.4
X17.4Y-8.5
X17.4Y-8.6
X17.4Y-8.7
X17.4Y-8.8
X17.4Y-8.9
X17.4Y-9.0
X17.5Y-5.9
X17.5Y-6.0
X17.5Y-6.1
X17.5Y-6.2
X17.5Y-6.3
X17.5Y-6.4
X17.5Y-6.5
X17.5Y-6.6
X17.5Y-6.7
X17.5Y-6.8
X17.5Y-6.9
X17.5Y-7.0
X17.5Y-7.1
X17.5Y-7.2
X17.5Y-7.3
X17.5Y-7.4
X17.5Y-7.5
X17.5Y-7.6
X17.5Y-7.7
X17.5Y-7.8
X17.5Y-7.9
X17.5Y-8.0
X17.5Y-8.1
X17.5Y-8.2
X17.5Y-8.3
X17.5Y-8.4
X17.5Y-8.5
X17.5Y-8.6
X17.5Y-8.7
X17.5Y-8.8
X17.5Y-8.9
X17.5Y-9.0
T5
X12.19Y-3.907
X12.19Y-4.3
T6
X3.2Y-10.6
X3.2Y-10.7772
X3.4559Y-10.6
X3.4559Y-10.7772
X13.5441Y-10.6
X13.5441Y-10.7772
X13.8Y-10.6
X13.8Y-10.7772
X14.522Y-10.1114
X14.522Y-10.2886
X14.778Y-10.1114
X14.778Y-10.2886
T7
X14.52Y-10.81
X15.62Y-10.81
T8
X17.8281Y-9.0
X17.8281Y-9.1654
X17.8281Y-9.3307
X17.8281Y-9.4961
X17.8281Y-9.6614
X17.8281Y-9.8268
X17.8281Y-9.9921
X17.8281Y-10.1575
X17.8281Y-10.3228
X17.8281Y-10.4882
X17.8281Y-10.6535
X17.8281Y-10.8189
X18.0446Y-9.0
X18.0446Y-9.1654
X18.0446Y-9.3307
X18.0446Y-9.4961
X18.0446Y-9.6614
X18.0446Y-9.8268
X18.0446Y-9.9921
X18.0446Y-10.1575
X18.0446Y-10.3228
X18.0446Y-10.4882
X18.0446Y-10.6535
X18.0446Y-10.8189
M30
