%TF.GenerationSoftware,KiCad,Pcbnew,9.0.2*%
%TF.CreationDate,2026-06-09T10:52:59-07:00*%
%TF.ProjectId,cpu010,63707530-3130-42e6-9b69-6361645f7063,A*%
%TF.SameCoordinates,Original*%
%TF.FileFunction,Paste,Top*%
%TF.FilePolarity,Positive*%
%FSLAX46Y46*%
G04 Gerber Fmt 4.6, Leading zero omitted, Abs format (unit mm)*
G04 Created by KiCad (PCBNEW 9.0.2) date 2026-06-09 10:52:59*
%MOMM*%
%LPD*%
G01*
G04 APERTURE LIST*
G04 Aperture macros list*
%AMRoundRect*
0 Rectangle with rounded corners*
0 $1 Rounding radius*
0 $2 $3 $4 $5 $6 $7 $8 $9 X,Y pos of 4 corners*
0 Add a 4 corners polygon primitive as box body*
4,1,4,$2,$3,$4,$5,$6,$7,$8,$9,$2,$3,0*
0 Add four circle primitives for the rounded corners*
1,1,$1+$1,$2,$3*
1,1,$1+$1,$4,$5*
1,1,$1+$1,$6,$7*
1,1,$1+$1,$8,$9*
0 Add four rect primitives between the rounded corners*
20,1,$1+$1,$2,$3,$4,$5,0*
20,1,$1+$1,$4,$5,$6,$7,0*
20,1,$1+$1,$6,$7,$8,$9,0*
20,1,$1+$1,$8,$9,$2,$3,0*%
G04 Aperture macros list end*
%ADD10RoundRect,0.237500X-0.237500X0.287500X-0.237500X-0.287500X0.237500X-0.287500X0.237500X0.287500X0*%
%ADD11RoundRect,0.250000X-0.475000X0.337500X-0.475000X-0.337500X0.475000X-0.337500X0.475000X0.337500X0*%
%ADD12RoundRect,0.250000X-0.450000X0.350000X-0.450000X-0.350000X0.450000X-0.350000X0.450000X0.350000X0*%
%ADD13RoundRect,0.075000X-0.662500X-0.075000X0.662500X-0.075000X0.662500X0.075000X-0.662500X0.075000X0*%
%ADD14RoundRect,0.075000X-0.075000X-0.662500X0.075000X-0.662500X0.075000X0.662500X-0.075000X0.662500X0*%
%ADD15RoundRect,0.150000X-0.925000X-0.150000X0.925000X-0.150000X0.925000X0.150000X-0.925000X0.150000X0*%
%ADD16RoundRect,0.150000X-0.825000X-0.150000X0.825000X-0.150000X0.825000X0.150000X-0.825000X0.150000X0*%
%ADD17RoundRect,0.137500X-0.625000X-0.137500X0.625000X-0.137500X0.625000X0.137500X-0.625000X0.137500X0*%
%ADD18RoundRect,0.150000X-0.512500X-0.150000X0.512500X-0.150000X0.512500X0.150000X-0.512500X0.150000X0*%
G04 APERTURE END LIST*
D10*
%TO.C,D802*%
X357225600Y-264310000D03*
X357225600Y-266060000D03*
%TD*%
%TO.C,D801*%
X357228000Y-270651000D03*
X357228000Y-272401000D03*
%TD*%
%TO.C,D601*%
X269240000Y-102240000D03*
X269240000Y-103990000D03*
%TD*%
D11*
%TO.C,C412*%
X260096000Y-121136500D03*
X260096000Y-123211500D03*
%TD*%
%TO.C,C518*%
X315976000Y-212068500D03*
X315976000Y-214143500D03*
%TD*%
D12*
%TO.C,R707*%
X452120000Y-170720000D03*
X452120000Y-172720000D03*
%TD*%
D11*
%TO.C,C519*%
X333756000Y-212830500D03*
X333756000Y-214905500D03*
%TD*%
%TO.C,C417*%
X281432000Y-124692500D03*
X281432000Y-126767500D03*
%TD*%
%TO.C,C332*%
X155448000Y-160252500D03*
X155448000Y-162327500D03*
%TD*%
%TO.C,C510*%
X315976000Y-268184500D03*
X315976000Y-270259500D03*
%TD*%
%TO.C,C402*%
X154432000Y-259058500D03*
X154432000Y-261133500D03*
%TD*%
%TO.C,C314*%
X248920000Y-223498500D03*
X248920000Y-225573500D03*
%TD*%
%TO.C,C704*%
X347472000Y-145245000D03*
X347472000Y-147320000D03*
%TD*%
%TO.C,C331*%
X153162000Y-138154500D03*
X153162000Y-140229500D03*
%TD*%
%TO.C,C319*%
X286766000Y-147298500D03*
X286766000Y-149373500D03*
%TD*%
%TO.C,C512*%
X296164000Y-184150000D03*
X296164000Y-186225000D03*
%TD*%
D12*
%TO.C,R705*%
X452120000Y-146574000D03*
X452120000Y-148574000D03*
%TD*%
D11*
%TO.C,C304*%
X182880000Y-177778500D03*
X182880000Y-179853500D03*
%TD*%
D12*
%TO.C,R102*%
X93570000Y-140240000D03*
X93570000Y-142240000D03*
%TD*%
%TO.C,R204*%
X91440000Y-245380000D03*
X91440000Y-247380000D03*
%TD*%
D11*
%TO.C,C309*%
X215900000Y-177778500D03*
X215900000Y-179853500D03*
%TD*%
%TO.C,C504*%
X296164000Y-240008500D03*
X296164000Y-242083500D03*
%TD*%
%TO.C,C202*%
X88900000Y-187938500D03*
X88900000Y-190013500D03*
%TD*%
%TO.C,C317*%
X268986000Y-198098500D03*
X268986000Y-200173500D03*
%TD*%
%TO.C,C327*%
X152908000Y-160252500D03*
X152908000Y-162327500D03*
%TD*%
D12*
%TO.C,R604*%
X269240000Y-106680000D03*
X269240000Y-108680000D03*
%TD*%
D11*
%TO.C,C318*%
X268986000Y-223498500D03*
X268986000Y-225573500D03*
%TD*%
%TO.C,C416*%
X281432000Y-132058500D03*
X281432000Y-134133500D03*
%TD*%
%TO.C,C502*%
X312166000Y-119358500D03*
X312166000Y-121433500D03*
%TD*%
%TO.C,C305*%
X182880000Y-208258500D03*
X182880000Y-210333500D03*
%TD*%
%TO.C,C707*%
X347980000Y-180318500D03*
X347980000Y-182393500D03*
%TD*%
D12*
%TO.C,R703*%
X452120000Y-199914000D03*
X452120000Y-201914000D03*
%TD*%
D11*
%TO.C,C606*%
X241300000Y-114278500D03*
X241300000Y-116353500D03*
%TD*%
D13*
%TO.C,U601*%
X263197500Y-120080000D03*
X263197500Y-120580000D03*
X263197500Y-121080000D03*
X263197500Y-121580000D03*
X263197500Y-122080000D03*
X263197500Y-122580000D03*
X263197500Y-123080000D03*
X263197500Y-123580000D03*
X263197500Y-124080000D03*
X263197500Y-124580000D03*
X263197500Y-125080000D03*
X263197500Y-125580000D03*
X263197500Y-126080000D03*
X263197500Y-126580000D03*
X263197500Y-127080000D03*
X263197500Y-127580000D03*
X263197500Y-128080000D03*
X263197500Y-128580000D03*
X263197500Y-129080000D03*
X263197500Y-129580000D03*
X263197500Y-130080000D03*
X263197500Y-130580000D03*
X263197500Y-131080000D03*
X263197500Y-131580000D03*
X263197500Y-132080000D03*
D14*
X264860000Y-133742500D03*
X265360000Y-133742500D03*
X265860000Y-133742500D03*
X266360000Y-133742500D03*
X266860000Y-133742500D03*
X267360000Y-133742500D03*
X267860000Y-133742500D03*
X268360000Y-133742500D03*
X268860000Y-133742500D03*
X269360000Y-133742500D03*
X269860000Y-133742500D03*
X270360000Y-133742500D03*
X270860000Y-133742500D03*
X271360000Y-133742500D03*
X271860000Y-133742500D03*
X272360000Y-133742500D03*
X272860000Y-133742500D03*
X273360000Y-133742500D03*
X273860000Y-133742500D03*
X274360000Y-133742500D03*
X274860000Y-133742500D03*
X275360000Y-133742500D03*
X275860000Y-133742500D03*
X276360000Y-133742500D03*
X276860000Y-133742500D03*
D13*
X278522500Y-132080000D03*
X278522500Y-131580000D03*
X278522500Y-131080000D03*
X278522500Y-130580000D03*
X278522500Y-130080000D03*
X278522500Y-129580000D03*
X278522500Y-129080000D03*
X278522500Y-128580000D03*
X278522500Y-128080000D03*
X278522500Y-127580000D03*
X278522500Y-127080000D03*
X278522500Y-126580000D03*
X278522500Y-126080000D03*
X278522500Y-125580000D03*
X278522500Y-125080000D03*
X278522500Y-124580000D03*
X278522500Y-124080000D03*
X278522500Y-123580000D03*
X278522500Y-123080000D03*
X278522500Y-122580000D03*
X278522500Y-122080000D03*
X278522500Y-121580000D03*
X278522500Y-121080000D03*
X278522500Y-120580000D03*
X278522500Y-120080000D03*
D14*
X276860000Y-118417500D03*
X276360000Y-118417500D03*
X275860000Y-118417500D03*
X275360000Y-118417500D03*
X274860000Y-118417500D03*
X274360000Y-118417500D03*
X273860000Y-118417500D03*
X273360000Y-118417500D03*
X272860000Y-118417500D03*
X272360000Y-118417500D03*
X271860000Y-118417500D03*
X271360000Y-118417500D03*
X270860000Y-118417500D03*
X270360000Y-118417500D03*
X269860000Y-118417500D03*
X269360000Y-118417500D03*
X268860000Y-118417500D03*
X268360000Y-118417500D03*
X267860000Y-118417500D03*
X267360000Y-118417500D03*
X266860000Y-118417500D03*
X266360000Y-118417500D03*
X265860000Y-118417500D03*
X265360000Y-118417500D03*
X264860000Y-118417500D03*
%TD*%
D11*
%TO.C,C303*%
X182880000Y-147298500D03*
X182880000Y-149373500D03*
%TD*%
D12*
%TO.C,R701*%
X452120000Y-155464000D03*
X452120000Y-157464000D03*
%TD*%
D11*
%TO.C,C509*%
X313944000Y-268946500D03*
X313944000Y-271021500D03*
%TD*%
%TO.C,C203*%
X116840000Y-193040000D03*
X116840000Y-195115000D03*
%TD*%
D15*
%TO.C,U306*%
X240031200Y-184404000D03*
X240031200Y-185674000D03*
X240031200Y-186944000D03*
X240031200Y-188214000D03*
X240031200Y-189484000D03*
X240031200Y-190754000D03*
X240031200Y-192024000D03*
X240031200Y-193294000D03*
X240031200Y-194564000D03*
X240031200Y-195834000D03*
X240031200Y-197104000D03*
X240031200Y-198374000D03*
X240031200Y-199644000D03*
X240031200Y-200914000D03*
X240031200Y-202184000D03*
X240031200Y-203454000D03*
X240031200Y-204724000D03*
X240031200Y-205994000D03*
X240031200Y-207264000D03*
X240031200Y-208534000D03*
X240031200Y-209804000D03*
X240031200Y-211074000D03*
X249931200Y-211074000D03*
X249931200Y-209804000D03*
X249931200Y-208534000D03*
X249931200Y-207264000D03*
X249931200Y-205994000D03*
X249931200Y-204724000D03*
X249931200Y-203454000D03*
X249931200Y-202184000D03*
X249931200Y-200914000D03*
X249931200Y-199644000D03*
X249931200Y-198374000D03*
X249931200Y-197104000D03*
X249931200Y-195834000D03*
X249931200Y-194564000D03*
X249931200Y-193294000D03*
X249931200Y-192024000D03*
X249931200Y-190754000D03*
X249931200Y-189484000D03*
X249931200Y-188214000D03*
X249931200Y-186944000D03*
X249931200Y-185674000D03*
X249931200Y-184404000D03*
%TD*%
D11*
%TO.C,C608*%
X292100000Y-103864500D03*
X292100000Y-105939500D03*
%TD*%
%TO.C,C329*%
X165608000Y-148314500D03*
X165608000Y-150389500D03*
%TD*%
%TO.C,C513*%
X313944000Y-184912000D03*
X313944000Y-186987000D03*
%TD*%
%TO.C,C604*%
X215900000Y-114278500D03*
X215900000Y-116353500D03*
%TD*%
%TO.C,C418*%
X273812000Y-113516500D03*
X273812000Y-115591500D03*
%TD*%
%TO.C,C312*%
X233680000Y-198098500D03*
X233680000Y-200173500D03*
%TD*%
%TO.C,C330*%
X157988000Y-137392500D03*
X157988000Y-139467500D03*
%TD*%
D12*
%TO.C,R205*%
X114300000Y-245380000D03*
X114300000Y-247380000D03*
%TD*%
D11*
%TO.C,C404*%
X185420000Y-256772500D03*
X185420000Y-258847500D03*
%TD*%
D12*
%TO.C,R704*%
X452120000Y-178340000D03*
X452120000Y-180340000D03*
%TD*%
D11*
%TO.C,C703*%
X365760000Y-168105000D03*
X365760000Y-170180000D03*
%TD*%
D12*
%TO.C,R605*%
X279146000Y-113554000D03*
X279146000Y-115554000D03*
%TD*%
%TO.C,R101*%
X96520000Y-140240000D03*
X96520000Y-142240000D03*
%TD*%
D11*
%TO.C,C306*%
X200660000Y-147298500D03*
X200660000Y-149373500D03*
%TD*%
D12*
%TO.C,R709*%
X358140000Y-247412000D03*
X358140000Y-249412000D03*
%TD*%
D11*
%TO.C,C712*%
X354330000Y-203178500D03*
X354330000Y-205253500D03*
%TD*%
D12*
%TO.C,R702*%
X452120000Y-196104000D03*
X452120000Y-198104000D03*
%TD*%
D11*
%TO.C,C323*%
X236728000Y-197061000D03*
X236728000Y-199136000D03*
%TD*%
D12*
%TO.C,R209*%
X88874600Y-183445400D03*
X88874600Y-185445400D03*
%TD*%
D11*
%TO.C,C401*%
X137160000Y-215878500D03*
X137160000Y-217953500D03*
%TD*%
D16*
%TO.C,U708*%
X348065000Y-245945000D03*
X348065000Y-247215000D03*
X348065000Y-248485000D03*
X348065000Y-249755000D03*
X348065000Y-251025000D03*
X348065000Y-252295000D03*
X348065000Y-253565000D03*
X348065000Y-254835000D03*
X353015000Y-254835000D03*
X353015000Y-253565000D03*
X353015000Y-252295000D03*
X353015000Y-251025000D03*
X353015000Y-249755000D03*
X353015000Y-248485000D03*
X353015000Y-247215000D03*
X353015000Y-245945000D03*
%TD*%
D12*
%TO.C,R607*%
X261620000Y-113554000D03*
X261620000Y-115554000D03*
%TD*%
D11*
%TO.C,C505*%
X313944000Y-240752500D03*
X313944000Y-242827500D03*
%TD*%
%TO.C,C706*%
X365760000Y-210820000D03*
X365760000Y-212895000D03*
%TD*%
%TO.C,C506*%
X315976000Y-239990500D03*
X315976000Y-242065500D03*
%TD*%
D12*
%TO.C,R212*%
X82296000Y-205756000D03*
X82296000Y-207756000D03*
%TD*%
D11*
%TO.C,C301*%
X137160000Y-147298500D03*
X137160000Y-149373500D03*
%TD*%
%TO.C,C302*%
X137160000Y-177778500D03*
X137160000Y-179853500D03*
%TD*%
D17*
%TO.C,U502*%
X299466500Y-260060000D03*
X299466500Y-260860000D03*
X299466500Y-261660000D03*
X299466500Y-262460000D03*
X299466500Y-263260000D03*
X299466500Y-264060000D03*
X299466500Y-264860000D03*
X299466500Y-265660000D03*
X299466500Y-266460000D03*
X299466500Y-267260000D03*
X299466500Y-268060000D03*
X299466500Y-268860000D03*
X299466500Y-269660000D03*
X299466500Y-270460000D03*
X299466500Y-271260000D03*
X299466500Y-272060000D03*
X299466500Y-272860000D03*
X299466500Y-273660000D03*
X299466500Y-274460000D03*
X299466500Y-275260000D03*
X299466500Y-276060000D03*
X299466500Y-276860000D03*
X310641500Y-276860000D03*
X310641500Y-276060000D03*
X310641500Y-275260000D03*
X310641500Y-274460000D03*
X310641500Y-273660000D03*
X310641500Y-272860000D03*
X310641500Y-272060000D03*
X310641500Y-271260000D03*
X310641500Y-270460000D03*
X310641500Y-269660000D03*
X310641500Y-268860000D03*
X310641500Y-268060000D03*
X310641500Y-267260000D03*
X310641500Y-266460000D03*
X310641500Y-265660000D03*
X310641500Y-264860000D03*
X310641500Y-264060000D03*
X310641500Y-263260000D03*
X310641500Y-262460000D03*
X310641500Y-261660000D03*
X310641500Y-260860000D03*
X310641500Y-260060000D03*
%TD*%
D11*
%TO.C,C316*%
X268986000Y-172698500D03*
X268986000Y-174773500D03*
%TD*%
%TO.C,C601*%
X146812000Y-124438500D03*
X146812000Y-126513500D03*
%TD*%
%TO.C,C414*%
X268732000Y-136630500D03*
X268732000Y-138705500D03*
%TD*%
%TO.C,C320*%
X286766000Y-177778500D03*
X286766000Y-179853500D03*
%TD*%
%TO.C,C709*%
X345440000Y-249660500D03*
X345440000Y-251735500D03*
%TD*%
D12*
%TO.C,R201*%
X88900000Y-175784000D03*
X88900000Y-177784000D03*
%TD*%
D11*
%TO.C,C511*%
X333756000Y-268925000D03*
X333756000Y-271000000D03*
%TD*%
D12*
%TO.C,R611*%
X228600000Y-135906000D03*
X228600000Y-137906000D03*
%TD*%
D18*
%TO.C,U801*%
X450671500Y-282768000D03*
X450671500Y-283718000D03*
X450671500Y-284668000D03*
X452946500Y-284668000D03*
X452946500Y-283718000D03*
X452946500Y-282768000D03*
%TD*%
D11*
%TO.C,C324*%
X253238000Y-198352500D03*
X253238000Y-200427500D03*
%TD*%
D17*
%TO.C,U510*%
X299466500Y-176066000D03*
X299466500Y-176866000D03*
X299466500Y-177666000D03*
X299466500Y-178466000D03*
X299466500Y-179266000D03*
X299466500Y-180066000D03*
X299466500Y-180866000D03*
X299466500Y-181666000D03*
X299466500Y-182466000D03*
X299466500Y-183266000D03*
X299466500Y-184066000D03*
X299466500Y-184866000D03*
X299466500Y-185666000D03*
X299466500Y-186466000D03*
X299466500Y-187266000D03*
X299466500Y-188066000D03*
X299466500Y-188866000D03*
X299466500Y-189666000D03*
X299466500Y-190466000D03*
X299466500Y-191266000D03*
X299466500Y-192066000D03*
X299466500Y-192866000D03*
X310641500Y-192866000D03*
X310641500Y-192066000D03*
X310641500Y-191266000D03*
X310641500Y-190466000D03*
X310641500Y-189666000D03*
X310641500Y-188866000D03*
X310641500Y-188066000D03*
X310641500Y-187266000D03*
X310641500Y-186466000D03*
X310641500Y-185666000D03*
X310641500Y-184866000D03*
X310641500Y-184066000D03*
X310641500Y-183266000D03*
X310641500Y-182466000D03*
X310641500Y-181666000D03*
X310641500Y-180866000D03*
X310641500Y-180066000D03*
X310641500Y-179266000D03*
X310641500Y-178466000D03*
X310641500Y-177666000D03*
X310641500Y-176866000D03*
X310641500Y-176066000D03*
%TD*%
D11*
%TO.C,C326*%
X144272000Y-152400000D03*
X144272000Y-154475000D03*
%TD*%
%TO.C,C603*%
X104902000Y-129518500D03*
X104902000Y-131593500D03*
%TD*%
%TO.C,C406*%
X200660000Y-218418500D03*
X200660000Y-220493500D03*
%TD*%
D12*
%TO.C,R103*%
X90620000Y-140240000D03*
X90620000Y-142240000D03*
%TD*%
%TO.C,R706*%
X452120000Y-150384000D03*
X452120000Y-152384000D03*
%TD*%
D11*
%TO.C,C328*%
X165608000Y-155934500D03*
X165608000Y-158009500D03*
%TD*%
D12*
%TO.C,R601*%
X293370000Y-97298000D03*
X293370000Y-99298000D03*
%TD*%
D11*
%TO.C,C321*%
X236728000Y-162284500D03*
X236728000Y-164359500D03*
%TD*%
%TO.C,C710*%
X354330000Y-145774500D03*
X354330000Y-147849500D03*
%TD*%
%TO.C,C413*%
X260096000Y-128756500D03*
X260096000Y-130831500D03*
%TD*%
D16*
%TO.C,U604*%
X294705000Y-102775000D03*
X294705000Y-104045000D03*
X294705000Y-105315000D03*
X294705000Y-106585000D03*
X299655000Y-106585000D03*
X299655000Y-105315000D03*
X299655000Y-104045000D03*
X299655000Y-102775000D03*
%TD*%
D12*
%TO.C,R610*%
X228600000Y-132096000D03*
X228600000Y-134096000D03*
%TD*%
D11*
%TO.C,C520*%
X264668000Y-269218500D03*
X264668000Y-271293500D03*
%TD*%
%TO.C,C205*%
X160274000Y-200638500D03*
X160274000Y-202713500D03*
%TD*%
D12*
%TO.C,R803*%
X360527600Y-264160000D03*
X360527600Y-266160000D03*
%TD*%
D11*
%TO.C,C702*%
X365760000Y-114300000D03*
X365760000Y-116375000D03*
%TD*%
D17*
%TO.C,U508*%
X299467000Y-204102000D03*
X299467000Y-204902000D03*
X299467000Y-205702000D03*
X299467000Y-206502000D03*
X299467000Y-207302000D03*
X299467000Y-208102000D03*
X299467000Y-208902000D03*
X299467000Y-209702000D03*
X299467000Y-210502000D03*
X299467000Y-211302000D03*
X299467000Y-212102000D03*
X299467000Y-212902000D03*
X299467000Y-213702000D03*
X299467000Y-214502000D03*
X299467000Y-215302000D03*
X299467000Y-216102000D03*
X299467000Y-216902000D03*
X299467000Y-217702000D03*
X299467000Y-218502000D03*
X299467000Y-219302000D03*
X299467000Y-220102000D03*
X299467000Y-220902000D03*
X310642000Y-220902000D03*
X310642000Y-220102000D03*
X310642000Y-219302000D03*
X310642000Y-218502000D03*
X310642000Y-217702000D03*
X310642000Y-216902000D03*
X310642000Y-216102000D03*
X310642000Y-215302000D03*
X310642000Y-214502000D03*
X310642000Y-213702000D03*
X310642000Y-212902000D03*
X310642000Y-212102000D03*
X310642000Y-211302000D03*
X310642000Y-210502000D03*
X310642000Y-209702000D03*
X310642000Y-208902000D03*
X310642000Y-208102000D03*
X310642000Y-207302000D03*
X310642000Y-206502000D03*
X310642000Y-205702000D03*
X310642000Y-204902000D03*
X310642000Y-204102000D03*
%TD*%
%TO.C,U504*%
X299466500Y-232000000D03*
X299466500Y-232800000D03*
X299466500Y-233600000D03*
X299466500Y-234400000D03*
X299466500Y-235200000D03*
X299466500Y-236000000D03*
X299466500Y-236800000D03*
X299466500Y-237600000D03*
X299466500Y-238400000D03*
X299466500Y-239200000D03*
X299466500Y-240000000D03*
X299466500Y-240800000D03*
X299466500Y-241600000D03*
X299466500Y-242400000D03*
X299466500Y-243200000D03*
X299466500Y-244000000D03*
X299466500Y-244800000D03*
X299466500Y-245600000D03*
X299466500Y-246400000D03*
X299466500Y-247200000D03*
X299466500Y-248000000D03*
X299466500Y-248800000D03*
X310641500Y-248800000D03*
X310641500Y-248000000D03*
X310641500Y-247200000D03*
X310641500Y-246400000D03*
X310641500Y-245600000D03*
X310641500Y-244800000D03*
X310641500Y-244000000D03*
X310641500Y-243200000D03*
X310641500Y-242400000D03*
X310641500Y-241600000D03*
X310641500Y-240800000D03*
X310641500Y-240000000D03*
X310641500Y-239200000D03*
X310641500Y-238400000D03*
X310641500Y-237600000D03*
X310641500Y-236800000D03*
X310641500Y-236000000D03*
X310641500Y-235200000D03*
X310641500Y-234400000D03*
X310641500Y-233600000D03*
X310641500Y-232800000D03*
X310641500Y-232000000D03*
%TD*%
D11*
%TO.C,C310*%
X233680000Y-147298500D03*
X233680000Y-149373500D03*
%TD*%
%TO.C,C419*%
X269240000Y-113516500D03*
X269240000Y-115591500D03*
%TD*%
D12*
%TO.C,R608*%
X228600000Y-118126000D03*
X228600000Y-120126000D03*
%TD*%
%TO.C,R208*%
X84836000Y-215932000D03*
X84836000Y-217932000D03*
%TD*%
%TO.C,R612*%
X237490000Y-95266000D03*
X237490000Y-97266000D03*
%TD*%
%TO.C,R301*%
X148844000Y-138192000D03*
X148844000Y-140192000D03*
%TD*%
D11*
%TO.C,C311*%
X233680000Y-172698500D03*
X233680000Y-174773500D03*
%TD*%
%TO.C,C521*%
X264668000Y-273282500D03*
X264668000Y-275357500D03*
%TD*%
D12*
%TO.C,R603*%
X275844000Y-113554000D03*
X275844000Y-115554000D03*
%TD*%
D17*
%TO.C,U505*%
X319279000Y-232000000D03*
X319279000Y-232800000D03*
X319279000Y-233600000D03*
X319279000Y-234400000D03*
X319279000Y-235200000D03*
X319279000Y-236000000D03*
X319279000Y-236800000D03*
X319279000Y-237600000D03*
X319279000Y-238400000D03*
X319279000Y-239200000D03*
X319279000Y-240000000D03*
X319279000Y-240800000D03*
X319279000Y-241600000D03*
X319279000Y-242400000D03*
X319279000Y-243200000D03*
X319279000Y-244000000D03*
X319279000Y-244800000D03*
X319279000Y-245600000D03*
X319279000Y-246400000D03*
X319279000Y-247200000D03*
X319279000Y-248000000D03*
X319279000Y-248800000D03*
X330454000Y-248800000D03*
X330454000Y-248000000D03*
X330454000Y-247200000D03*
X330454000Y-246400000D03*
X330454000Y-245600000D03*
X330454000Y-244800000D03*
X330454000Y-244000000D03*
X330454000Y-243200000D03*
X330454000Y-242400000D03*
X330454000Y-241600000D03*
X330454000Y-240800000D03*
X330454000Y-240000000D03*
X330454000Y-239200000D03*
X330454000Y-238400000D03*
X330454000Y-237600000D03*
X330454000Y-236800000D03*
X330454000Y-236000000D03*
X330454000Y-235200000D03*
X330454000Y-234400000D03*
X330454000Y-233600000D03*
X330454000Y-232800000D03*
X330454000Y-232000000D03*
%TD*%
D11*
%TO.C,C407*%
X215900000Y-218418500D03*
X215900000Y-220493500D03*
%TD*%
%TO.C,C602*%
X136652000Y-107928500D03*
X136652000Y-110003500D03*
%TD*%
D12*
%TO.C,R606*%
X264922000Y-113554000D03*
X264922000Y-115554000D03*
%TD*%
D11*
%TO.C,C307*%
X200660000Y-177778500D03*
X200660000Y-179853500D03*
%TD*%
D12*
%TO.C,R708*%
X358140000Y-251222000D03*
X358140000Y-253222000D03*
%TD*%
D11*
%TO.C,C405*%
X203200000Y-256772500D03*
X203200000Y-258847500D03*
%TD*%
%TO.C,C315*%
X268986000Y-147298500D03*
X268986000Y-149373500D03*
%TD*%
%TO.C,C308*%
X215900000Y-147298500D03*
X215900000Y-149373500D03*
%TD*%
%TO.C,C508*%
X296164000Y-267948500D03*
X296164000Y-270023500D03*
%TD*%
D12*
%TO.C,R211*%
X82296000Y-209566000D03*
X82296000Y-211566000D03*
%TD*%
%TO.C,R206*%
X88900000Y-215916000D03*
X88900000Y-217916000D03*
%TD*%
D13*
%TO.C,U301*%
X147277500Y-143860000D03*
X147277500Y-144360000D03*
X147277500Y-144860000D03*
X147277500Y-145360000D03*
X147277500Y-145860000D03*
X147277500Y-146360000D03*
X147277500Y-146860000D03*
X147277500Y-147360000D03*
X147277500Y-147860000D03*
X147277500Y-148360000D03*
X147277500Y-148860000D03*
X147277500Y-149360000D03*
X147277500Y-149860000D03*
X147277500Y-150360000D03*
X147277500Y-150860000D03*
X147277500Y-151360000D03*
X147277500Y-151860000D03*
X147277500Y-152360000D03*
X147277500Y-152860000D03*
X147277500Y-153360000D03*
X147277500Y-153860000D03*
X147277500Y-154360000D03*
X147277500Y-154860000D03*
X147277500Y-155360000D03*
X147277500Y-155860000D03*
D14*
X148940000Y-157522500D03*
X149440000Y-157522500D03*
X149940000Y-157522500D03*
X150440000Y-157522500D03*
X150940000Y-157522500D03*
X151440000Y-157522500D03*
X151940000Y-157522500D03*
X152440000Y-157522500D03*
X152940000Y-157522500D03*
X153440000Y-157522500D03*
X153940000Y-157522500D03*
X154440000Y-157522500D03*
X154940000Y-157522500D03*
X155440000Y-157522500D03*
X155940000Y-157522500D03*
X156440000Y-157522500D03*
X156940000Y-157522500D03*
X157440000Y-157522500D03*
X157940000Y-157522500D03*
X158440000Y-157522500D03*
X158940000Y-157522500D03*
X159440000Y-157522500D03*
X159940000Y-157522500D03*
X160440000Y-157522500D03*
X160940000Y-157522500D03*
D13*
X162602500Y-155860000D03*
X162602500Y-155360000D03*
X162602500Y-154860000D03*
X162602500Y-154360000D03*
X162602500Y-153860000D03*
X162602500Y-153360000D03*
X162602500Y-152860000D03*
X162602500Y-152360000D03*
X162602500Y-151860000D03*
X162602500Y-151360000D03*
X162602500Y-150860000D03*
X162602500Y-150360000D03*
X162602500Y-149860000D03*
X162602500Y-149360000D03*
X162602500Y-148860000D03*
X162602500Y-148360000D03*
X162602500Y-147860000D03*
X162602500Y-147360000D03*
X162602500Y-146860000D03*
X162602500Y-146360000D03*
X162602500Y-145860000D03*
X162602500Y-145360000D03*
X162602500Y-144860000D03*
X162602500Y-144360000D03*
X162602500Y-143860000D03*
D14*
X160940000Y-142197500D03*
X160440000Y-142197500D03*
X159940000Y-142197500D03*
X159440000Y-142197500D03*
X158940000Y-142197500D03*
X158440000Y-142197500D03*
X157940000Y-142197500D03*
X157440000Y-142197500D03*
X156940000Y-142197500D03*
X156440000Y-142197500D03*
X155940000Y-142197500D03*
X155440000Y-142197500D03*
X154940000Y-142197500D03*
X154440000Y-142197500D03*
X153940000Y-142197500D03*
X153440000Y-142197500D03*
X152940000Y-142197500D03*
X152440000Y-142197500D03*
X151940000Y-142197500D03*
X151440000Y-142197500D03*
X150940000Y-142197500D03*
X150440000Y-142197500D03*
X149940000Y-142197500D03*
X149440000Y-142197500D03*
X148940000Y-142197500D03*
%TD*%
D17*
%TO.C,U503*%
X319279000Y-260060000D03*
X319279000Y-260860000D03*
X319279000Y-261660000D03*
X319279000Y-262460000D03*
X319279000Y-263260000D03*
X319279000Y-264060000D03*
X319279000Y-264860000D03*
X319279000Y-265660000D03*
X319279000Y-266460000D03*
X319279000Y-267260000D03*
X319279000Y-268060000D03*
X319279000Y-268860000D03*
X319279000Y-269660000D03*
X319279000Y-270460000D03*
X319279000Y-271260000D03*
X319279000Y-272060000D03*
X319279000Y-272860000D03*
X319279000Y-273660000D03*
X319279000Y-274460000D03*
X319279000Y-275260000D03*
X319279000Y-276060000D03*
X319279000Y-276860000D03*
X330454000Y-276860000D03*
X330454000Y-276060000D03*
X330454000Y-275260000D03*
X330454000Y-274460000D03*
X330454000Y-273660000D03*
X330454000Y-272860000D03*
X330454000Y-272060000D03*
X330454000Y-271260000D03*
X330454000Y-270460000D03*
X330454000Y-269660000D03*
X330454000Y-268860000D03*
X330454000Y-268060000D03*
X330454000Y-267260000D03*
X330454000Y-266460000D03*
X330454000Y-265660000D03*
X330454000Y-264860000D03*
X330454000Y-264060000D03*
X330454000Y-263260000D03*
X330454000Y-262460000D03*
X330454000Y-261660000D03*
X330454000Y-260860000D03*
X330454000Y-260060000D03*
%TD*%
D12*
%TO.C,R801*%
X360530000Y-270526000D03*
X360530000Y-272526000D03*
%TD*%
D11*
%TO.C,C705*%
X347980000Y-210798500D03*
X347980000Y-212873500D03*
%TD*%
D17*
%TO.C,U511*%
X319279500Y-176066000D03*
X319279500Y-176866000D03*
X319279500Y-177666000D03*
X319279500Y-178466000D03*
X319279500Y-179266000D03*
X319279500Y-180066000D03*
X319279500Y-180866000D03*
X319279500Y-181666000D03*
X319279500Y-182466000D03*
X319279500Y-183266000D03*
X319279500Y-184066000D03*
X319279500Y-184866000D03*
X319279500Y-185666000D03*
X319279500Y-186466000D03*
X319279500Y-187266000D03*
X319279500Y-188066000D03*
X319279500Y-188866000D03*
X319279500Y-189666000D03*
X319279500Y-190466000D03*
X319279500Y-191266000D03*
X319279500Y-192066000D03*
X319279500Y-192866000D03*
X330454500Y-192866000D03*
X330454500Y-192066000D03*
X330454500Y-191266000D03*
X330454500Y-190466000D03*
X330454500Y-189666000D03*
X330454500Y-188866000D03*
X330454500Y-188066000D03*
X330454500Y-187266000D03*
X330454500Y-186466000D03*
X330454500Y-185666000D03*
X330454500Y-184866000D03*
X330454500Y-184066000D03*
X330454500Y-183266000D03*
X330454500Y-182466000D03*
X330454500Y-181666000D03*
X330454500Y-180866000D03*
X330454500Y-180066000D03*
X330454500Y-179266000D03*
X330454500Y-178466000D03*
X330454500Y-177666000D03*
X330454500Y-176866000D03*
X330454500Y-176066000D03*
%TD*%
D11*
%TO.C,C605*%
X228600000Y-114278500D03*
X228600000Y-116353500D03*
%TD*%
%TO.C,C415*%
X271272000Y-136630500D03*
X271272000Y-138705500D03*
%TD*%
%TO.C,C403*%
X167640000Y-259058500D03*
X167640000Y-261133500D03*
%TD*%
D12*
%TO.C,R609*%
X228600000Y-121936000D03*
X228600000Y-123936000D03*
%TD*%
D17*
%TO.C,U509*%
X319278500Y-204084000D03*
X319278500Y-204884000D03*
X319278500Y-205684000D03*
X319278500Y-206484000D03*
X319278500Y-207284000D03*
X319278500Y-208084000D03*
X319278500Y-208884000D03*
X319278500Y-209684000D03*
X319278500Y-210484000D03*
X319278500Y-211284000D03*
X319278500Y-212084000D03*
X319278500Y-212884000D03*
X319278500Y-213684000D03*
X319278500Y-214484000D03*
X319278500Y-215284000D03*
X319278500Y-216084000D03*
X319278500Y-216884000D03*
X319278500Y-217684000D03*
X319278500Y-218484000D03*
X319278500Y-219284000D03*
X319278500Y-220084000D03*
X319278500Y-220884000D03*
X330453500Y-220884000D03*
X330453500Y-220084000D03*
X330453500Y-219284000D03*
X330453500Y-218484000D03*
X330453500Y-217684000D03*
X330453500Y-216884000D03*
X330453500Y-216084000D03*
X330453500Y-215284000D03*
X330453500Y-214484000D03*
X330453500Y-213684000D03*
X330453500Y-212884000D03*
X330453500Y-212084000D03*
X330453500Y-211284000D03*
X330453500Y-210484000D03*
X330453500Y-209684000D03*
X330453500Y-208884000D03*
X330453500Y-208084000D03*
X330453500Y-207284000D03*
X330453500Y-206484000D03*
X330453500Y-205684000D03*
X330453500Y-204884000D03*
X330453500Y-204084000D03*
%TD*%
D11*
%TO.C,C322*%
X253238000Y-163554500D03*
X253238000Y-165629500D03*
%TD*%
%TO.C,C507*%
X333756000Y-240752500D03*
X333756000Y-242827500D03*
%TD*%
%TO.C,C515*%
X333756000Y-184890500D03*
X333756000Y-186965500D03*
%TD*%
D15*
%TO.C,U305*%
X240031200Y-149479000D03*
X240031200Y-150749000D03*
X240031200Y-152019000D03*
X240031200Y-153289000D03*
X240031200Y-154559000D03*
X240031200Y-155829000D03*
X240031200Y-157099000D03*
X240031200Y-158369000D03*
X240031200Y-159639000D03*
X240031200Y-160909000D03*
X240031200Y-162179000D03*
X240031200Y-163449000D03*
X240031200Y-164719000D03*
X240031200Y-165989000D03*
X240031200Y-167259000D03*
X240031200Y-168529000D03*
X240031200Y-169799000D03*
X240031200Y-171069000D03*
X240031200Y-172339000D03*
X240031200Y-173609000D03*
X240031200Y-174879000D03*
X240031200Y-176149000D03*
X249931200Y-176149000D03*
X249931200Y-174879000D03*
X249931200Y-173609000D03*
X249931200Y-172339000D03*
X249931200Y-171069000D03*
X249931200Y-169799000D03*
X249931200Y-168529000D03*
X249931200Y-167259000D03*
X249931200Y-165989000D03*
X249931200Y-164719000D03*
X249931200Y-163449000D03*
X249931200Y-162179000D03*
X249931200Y-160909000D03*
X249931200Y-159639000D03*
X249931200Y-158369000D03*
X249931200Y-157099000D03*
X249931200Y-155829000D03*
X249931200Y-154559000D03*
X249931200Y-153289000D03*
X249931200Y-152019000D03*
X249931200Y-150749000D03*
X249931200Y-149479000D03*
%TD*%
D11*
%TO.C,C522*%
X264668000Y-258042500D03*
X264668000Y-260117500D03*
%TD*%
%TO.C,C313*%
X233680000Y-223498500D03*
X233680000Y-225573500D03*
%TD*%
%TO.C,C333*%
X145158000Y-178794500D03*
X145158000Y-180869500D03*
%TD*%
%TO.C,C514*%
X315976000Y-184128500D03*
X315976000Y-186203500D03*
%TD*%
%TO.C,C204*%
X108204000Y-147298500D03*
X108204000Y-149373500D03*
%TD*%
D15*
%TO.C,U302*%
X148590000Y-165989000D03*
X148590000Y-167259000D03*
X148590000Y-168529000D03*
X148590000Y-169799000D03*
X148590000Y-171069000D03*
X148590000Y-172339000D03*
X148590000Y-173609000D03*
X148590000Y-174879000D03*
X148590000Y-176149000D03*
X148590000Y-177419000D03*
X148590000Y-178689000D03*
X148590000Y-179959000D03*
X148590000Y-181229000D03*
X148590000Y-182499000D03*
X148590000Y-183769000D03*
X148590000Y-185039000D03*
X148590000Y-186309000D03*
X148590000Y-187579000D03*
X148590000Y-188849000D03*
X148590000Y-190119000D03*
X148590000Y-191389000D03*
X148590000Y-192659000D03*
X158490000Y-192659000D03*
X158490000Y-191389000D03*
X158490000Y-190119000D03*
X158490000Y-188849000D03*
X158490000Y-187579000D03*
X158490000Y-186309000D03*
X158490000Y-185039000D03*
X158490000Y-183769000D03*
X158490000Y-182499000D03*
X158490000Y-181229000D03*
X158490000Y-179959000D03*
X158490000Y-178689000D03*
X158490000Y-177419000D03*
X158490000Y-176149000D03*
X158490000Y-174879000D03*
X158490000Y-173609000D03*
X158490000Y-172339000D03*
X158490000Y-171069000D03*
X158490000Y-169799000D03*
X158490000Y-168529000D03*
X158490000Y-167259000D03*
X158490000Y-165989000D03*
%TD*%
D11*
%TO.C,C517*%
X313944000Y-212830500D03*
X313944000Y-214905500D03*
%TD*%
%TO.C,C607*%
X254000000Y-114300000D03*
X254000000Y-116375000D03*
%TD*%
D12*
%TO.C,R207*%
X86868000Y-215916000D03*
X86868000Y-217916000D03*
%TD*%
%TO.C,R613*%
X273050000Y-101378000D03*
X273050000Y-103378000D03*
%TD*%
D11*
%TO.C,C325*%
X144272000Y-144758500D03*
X144272000Y-146833500D03*
%TD*%
D12*
%TO.C,R602*%
X298450000Y-97298000D03*
X298450000Y-99298000D03*
%TD*%
D11*
%TO.C,C501*%
X291592000Y-264138500D03*
X291592000Y-266213500D03*
%TD*%
%TO.C,C701*%
X347980000Y-114278500D03*
X347980000Y-116353500D03*
%TD*%
%TO.C,C334*%
X161922000Y-180064500D03*
X161922000Y-182139500D03*
%TD*%
D12*
%TO.C,R210*%
X123952000Y-138700000D03*
X123952000Y-140700000D03*
%TD*%
D11*
%TO.C,C516*%
X296164000Y-212068500D03*
X296164000Y-214143500D03*
%TD*%
%TO.C,C503*%
X333756000Y-119358500D03*
X333756000Y-121433500D03*
%TD*%
M02*
